<svg width="277" height="277" viewBox="0 0 277 277" fill="none" xmlns="http://www.w3.org/2000/svg">
<rect width="277" height="277" rx="31" fill="white"/>
<path d="M66.7523 58.56C68.0323 58.56 69.3257 58.68 70.6323 58.92C71.939 59.16 72.979 59.5067 73.7523 59.96C73.9923 60.0667 74.139 60.1867 74.1923 60.32C74.2723 60.4267 74.3257 60.6267 74.3523 60.92L74.7923 65.4C74.7923 65.48 74.7257 65.5333 74.5923 65.56C74.459 65.56 74.379 65.52 74.3523 65.44C73.7657 63.3867 72.6723 61.88 71.0723 60.92C69.499 59.9333 67.539 59.44 65.1923 59.44C63.1657 59.44 61.3923 59.8933 59.8723 60.8C58.3523 61.68 57.179 62.9333 56.3523 64.56C55.5257 66.1867 55.1123 68.0667 55.1123 70.2C55.1123 72.68 55.619 74.9733 56.6323 77.08C57.6723 79.1867 59.059 80.8533 60.7923 82.08C62.5523 83.3067 64.4457 83.92 66.4723 83.92C68.3923 83.92 70.059 83.4 71.4723 82.36C72.8857 81.2933 73.9657 79.6667 74.7123 77.48C74.7123 77.4 74.7657 77.36 74.8723 77.36C74.9523 77.36 75.019 77.3733 75.0723 77.4C75.1523 77.4267 75.1923 77.4667 75.1923 77.52L74.6323 82.04C74.579 82.36 74.5123 82.5733 74.4323 82.68C74.379 82.76 74.2323 82.8533 73.9923 82.96C71.5923 83.9733 69.059 84.48 66.3923 84.48C63.1923 84.48 60.5123 83.84 58.3523 82.56C56.219 81.2533 54.6457 79.6 53.6323 77.6C52.619 75.6 52.1123 73.4933 52.1123 71.28C52.1123 68.8267 52.7923 66.6267 54.1523 64.68C55.5123 62.7333 57.3123 61.2267 59.5523 60.16C61.7923 59.0933 64.1923 58.56 66.7523 58.56ZM89.3502 69.88C90.8968 69.88 92.2702 70.1733 93.4702 70.76C94.6702 71.3467 95.5902 72.16 96.2302 73.2C96.8968 74.2133 97.2302 75.36 97.2302 76.64C97.2302 78.0533 96.8835 79.3333 96.1902 80.48C95.4968 81.6267 94.5368 82.5333 93.3102 83.2C92.1102 83.84 90.7635 84.16 89.2702 84.16C88.3902 84.16 87.4302 84.12 86.3902 84.04C86.0168 84.0133 85.5768 83.9867 85.0702 83.96C84.5635 83.9333 84.0035 83.92 83.3902 83.92L80.6702 83.96C80.1902 83.9867 79.5102 84 78.6302 84C78.5768 84 78.5502 83.92 78.5502 83.76C78.5502 83.6 78.5768 83.52 78.6302 83.52C79.6435 83.52 80.3902 83.4533 80.8702 83.32C81.3502 83.16 81.6835 82.8933 81.8702 82.52C82.0568 82.1467 82.1502 81.56 82.1502 80.76V62.24C82.1502 61.44 82.0568 60.8533 81.8702 60.48C81.7102 60.1067 81.3902 59.8533 80.9102 59.72C80.4302 59.56 79.6968 59.48 78.7102 59.48C78.6302 59.48 78.5902 59.4 78.5902 59.24C78.5902 59.08 78.6302 59 78.7102 59L80.6702 59.04C81.7902 59.0933 82.6968 59.12 83.3902 59.12C83.8702 59.12 84.3102 59.1067 84.7102 59.08C85.1368 59.0533 85.4968 59.0267 85.7902 59C86.6435 58.92 87.4168 58.88 88.1102 58.88C90.3502 58.88 92.0302 59.3733 93.1502 60.36C94.2702 61.32 94.8302 62.5867 94.8302 64.16C94.8302 65.6533 94.2835 66.9467 93.1902 68.04C92.1235 69.1067 90.6968 69.8667 88.9102 70.32L89.3502 69.88ZM87.2302 59.48C86.5102 59.48 85.9902 59.5333 85.6702 59.64C85.3502 59.7467 85.1102 60 84.9502 60.4C84.7902 60.8 84.7102 61.44 84.7102 62.32V70.16L83.4302 69.84C84.5768 69.92 85.6035 69.96 86.5102 69.96C88.4568 69.96 89.8968 69.4667 90.8302 68.48C91.7635 67.4667 92.2302 66.1333 92.2302 64.48C92.2302 62.9867 91.8168 61.7867 90.9902 60.88C90.1902 59.9467 88.9368 59.48 87.2302 59.48ZM88.6702 83.44C90.6168 83.44 92.0568 82.9467 92.9902 81.96C93.9502 80.9467 94.4302 79.5067 94.4302 77.64C94.4302 75.6133 93.8302 73.9733 92.6302 72.72C91.4568 71.4667 89.8302 70.8267 87.7502 70.8C86.2302 70.7467 84.8302 70.8133 83.5502 71L84.7102 70.56V80.76C84.7102 81.4533 84.8035 81.9867 84.9902 82.36C85.2035 82.7333 85.5902 83.0133 86.1502 83.2C86.7368 83.36 87.5768 83.44 88.6702 83.44ZM107.375 72.2H117.975L118.255 73H106.975L107.375 72.2ZM127.175 83.52C127.282 83.52 127.335 83.6 127.335 83.76C127.335 83.92 127.282 84 127.175 84C126.668 84 125.882 83.9733 124.815 83.92C123.748 83.8667 122.975 83.84 122.495 83.84C121.908 83.84 121.162 83.8667 120.255 83.92C119.402 83.9733 118.748 84 118.295 84C118.188 84 118.135 83.92 118.135 83.76C118.135 83.6 118.188 83.52 118.295 83.52C119.308 83.52 120.028 83.4267 120.455 83.24C120.908 83.0533 121.135 82.72 121.135 82.24C121.135 81.84 120.975 81.28 120.655 80.56L111.775 61.8L112.775 60.56L105.015 78.92C104.642 79.8267 104.455 80.5733 104.455 81.16C104.455 82.7333 105.762 83.52 108.375 83.52C108.508 83.52 108.575 83.6 108.575 83.76C108.575 83.92 108.508 84 108.375 84C107.895 84 107.202 83.9733 106.295 83.92C105.282 83.8667 104.402 83.84 103.655 83.84C102.962 83.84 102.162 83.8667 101.255 83.92C100.455 83.9733 99.7882 84 99.2548 84C99.1215 84 99.0548 83.92 99.0548 83.76C99.0548 83.6 99.1215 83.52 99.2548 83.52C100.002 83.52 100.628 83.3867 101.135 83.12C101.668 82.8267 102.162 82.3333 102.615 81.64C103.095 80.92 103.615 79.8933 104.175 78.56L112.615 58.64C112.668 58.56 112.762 58.52 112.895 58.52C113.028 58.52 113.108 58.56 113.135 58.64L122.575 78.52C123.482 80.4933 124.255 81.8267 124.895 82.52C125.535 83.1867 126.295 83.52 127.175 83.52ZM141.341 58.64C141.367 58.56 141.447 58.52 141.581 58.52C141.741 58.52 141.834 58.56 141.861 58.64L152.381 84H149.581L140.461 61.92L141.581 60.56L132.021 84H130.981L141.341 58.64ZM128.821 90.16C128.821 88 128.714 86.28 128.501 85C128.421 84.4933 128.381 84 128.381 83.52C128.381 83.3067 128.407 83.1867 128.461 83.16C128.514 83.1067 128.634 83.08 128.821 83.08H154.181C154.394 83.08 154.514 83.1067 154.541 83.16C154.594 83.1867 154.621 83.3067 154.621 83.52C154.621 83.6533 154.594 84.0133 154.541 84.6C154.354 86.0933 154.261 87.9467 154.261 90.16C154.261 90.2933 154.181 90.36 154.021 90.36C153.861 90.36 153.781 90.2933 153.781 90.16C153.781 88.0267 153.261 86.4667 152.221 85.48C151.181 84.4933 149.487 84 147.141 84H134.901C131.141 84 129.261 86.0533 129.261 90.16C129.261 90.2933 129.181 90.36 129.021 90.36C128.887 90.36 128.821 90.2933 128.821 90.16ZM167.939 84.16C167.246 84.16 166.419 84.12 165.459 84.04C165.086 84.0133 164.606 83.9867 164.019 83.96C163.459 83.9333 162.833 83.92 162.139 83.92L159.499 83.96C158.993 83.9867 158.299 84 157.419 84C157.366 84 157.339 83.92 157.339 83.76C157.339 83.6 157.366 83.52 157.419 83.52C158.459 83.4933 159.206 83.4133 159.659 83.28C160.139 83.1467 160.473 82.8933 160.659 82.52C160.846 82.1467 160.939 81.56 160.939 80.76V62.24C160.939 61.44 160.846 60.8533 160.659 60.48C160.499 60.1067 160.179 59.8533 159.699 59.72C159.246 59.5867 158.513 59.5067 157.499 59.48C157.419 59.48 157.379 59.4 157.379 59.24C157.379 59.08 157.419 59 157.499 59L159.419 59.04C160.486 59.0933 161.393 59.12 162.139 59.12C162.913 59.12 163.886 59.0933 165.059 59.04L166.979 59C167.059 59 167.099 59.08 167.099 59.24C167.099 59.4 167.059 59.48 166.979 59.48C165.966 59.5067 165.219 59.5867 164.739 59.72C164.259 59.8533 163.926 60.12 163.739 60.52C163.579 60.8933 163.499 61.4933 163.499 62.32V80.76C163.499 81.6933 163.739 82.3733 164.219 82.8C164.699 83.2267 165.673 83.44 167.139 83.44C169.299 83.44 170.846 82.96 171.779 82C172.739 81.0133 173.219 79.48 173.219 77.4C173.219 75 172.686 73.28 171.619 72.24C170.553 71.2 169.006 70.68 166.979 70.68C165.619 70.68 164.099 70.9067 162.419 71.36L162.339 70.56C164.393 70.1067 166.273 69.88 167.979 69.88C173.339 69.88 176.019 72.0667 176.019 76.44C176.019 77.96 175.673 79.3067 174.979 80.48C174.313 81.6533 173.366 82.56 172.139 83.2C170.913 83.84 169.513 84.16 167.939 84.16ZM189.697 84.16C188.977 84.16 188.137 84.12 187.177 84.04C186.777 84.0133 186.297 83.9867 185.737 83.96C185.177 83.9333 184.577 83.92 183.937 83.92L181.217 83.96C180.737 83.9867 180.057 84 179.177 84C179.124 84 179.097 83.92 179.097 83.76C179.097 83.6 179.124 83.52 179.177 83.52C180.19 83.52 180.937 83.4533 181.417 83.32C181.897 83.16 182.23 82.8933 182.417 82.52C182.604 82.1467 182.697 81.56 182.697 80.76V62.24C182.697 61.44 182.604 60.8533 182.417 60.48C182.257 60.1067 181.937 59.8533 181.457 59.72C181.004 59.56 180.27 59.48 179.257 59.48C179.177 59.48 179.137 59.4 179.137 59.24C179.137 59.08 179.177 59 179.257 59H195.017C195.177 59 195.284 59.04 195.337 59.12C195.39 59.1733 195.43 59.2933 195.457 59.48L195.977 64.56C195.977 64.64 195.897 64.6933 195.737 64.72C195.604 64.72 195.524 64.68 195.497 64.6C195.23 63.1067 194.67 61.9333 193.817 61.08C192.99 60.2267 191.964 59.8 190.737 59.8H188.457C187.524 59.8 186.83 59.88 186.377 60.04C185.95 60.1733 185.657 60.4267 185.497 60.8C185.337 61.1467 185.257 61.7067 185.257 62.48V80.76C185.257 81.6933 185.497 82.3733 185.977 82.8C186.457 83.2267 187.43 83.44 188.897 83.44C191.03 83.44 192.577 82.96 193.537 82C194.497 81.0133 194.977 79.52 194.977 77.52C194.977 75.0667 194.337 73.32 193.057 72.28C191.777 71.2133 189.937 70.68 187.537 70.68C186.657 70.68 185.537 70.7733 184.177 70.96L184.097 70.2C185.67 69.9867 187.124 69.88 188.457 69.88C194.67 69.88 197.777 72.08 197.777 76.48C197.777 77.9733 197.43 79.3067 196.737 80.48C196.07 81.6533 195.124 82.56 193.897 83.2C192.67 83.84 191.27 84.16 189.697 84.16ZM207.922 72.2H218.522L218.802 73H207.522L207.922 72.2ZM227.722 83.52C227.828 83.52 227.882 83.6 227.882 83.76C227.882 83.92 227.828 84 227.722 84C227.215 84 226.428 83.9733 225.362 83.92C224.295 83.8667 223.522 83.84 223.042 83.84C222.455 83.84 221.708 83.8667 220.802 83.92C219.948 83.9733 219.295 84 218.842 84C218.735 84 218.682 83.92 218.682 83.76C218.682 83.6 218.735 83.52 218.842 83.52C219.855 83.52 220.575 83.4267 221.002 83.24C221.455 83.0533 221.682 82.72 221.682 82.24C221.682 81.84 221.522 81.28 221.202 80.56L212.322 61.8L213.322 60.56L205.562 78.92C205.188 79.8267 205.002 80.5733 205.002 81.16C205.002 82.7333 206.308 83.52 208.922 83.52C209.055 83.52 209.122 83.6 209.122 83.76C209.122 83.92 209.055 84 208.922 84C208.442 84 207.748 83.9733 206.842 83.92C205.828 83.8667 204.948 83.84 204.202 83.84C203.508 83.84 202.708 83.8667 201.802 83.92C201.002 83.9733 200.335 84 199.802 84C199.668 84 199.602 83.92 199.602 83.76C199.602 83.6 199.668 83.52 199.802 83.52C200.548 83.52 201.175 83.3867 201.682 83.12C202.215 82.8267 202.708 82.3333 203.162 81.64C203.642 80.92 204.162 79.8933 204.722 78.56L213.162 58.64C213.215 58.56 213.308 58.52 213.442 58.52C213.575 58.52 213.655 58.56 213.682 58.64L223.122 78.52C224.028 80.4933 224.802 81.8267 225.442 82.52C226.082 83.1867 226.842 83.52 227.722 83.52Z" fill="#545454"/>
<path d="M50.1523 86.6H128.295V87H50.1523V86.6ZM154.759 86.6H227.842V87H154.759V86.6Z" fill="#545454"/>
<path d="M128.784 182.424C128.848 182.424 128.88 182.52 128.88 182.712C128.88 182.904 128.848 183 128.784 183C127.728 183 126.912 182.984 126.336 182.952L123.072 182.904L119.712 182.952C119.136 182.984 118.352 183 117.36 183C117.296 183 117.264 182.904 117.264 182.712C117.264 182.52 117.296 182.424 117.36 182.424C118.576 182.424 119.472 182.344 120.048 182.184C120.624 182.024 121.008 181.72 121.2 181.272C121.392 180.792 121.488 180.072 121.488 179.112V167.208L122.352 167.448C121.072 167.448 120 167.624 119.136 167.976C118.304 168.296 117.424 168.984 116.496 170.04C115.6 171.096 114.512 172.728 113.232 174.936C111.664 177.624 110.464 179.544 109.632 180.696C108.832 181.848 108.256 182.52 107.904 182.712C107.552 182.904 107.12 183 106.608 183H101.664C101.568 183 101.52 182.904 101.52 182.712C101.52 182.52 101.568 182.424 101.664 182.424C103.328 182.392 104.768 181.752 105.984 180.504C107.2 179.224 108.672 177.048 110.4 173.976C111.808 171.512 113.12 169.816 114.336 168.888C115.552 167.928 117.072 167.368 118.896 167.208L119.232 167.544C115.84 167.512 113.248 166.856 111.456 165.576C109.664 164.264 108.768 162.488 108.768 160.248C108.768 158.808 109.136 157.528 109.872 156.408C110.64 155.288 111.68 154.424 112.992 153.816C114.336 153.176 115.84 152.856 117.504 152.856C118.24 152.856 119.088 152.904 120.048 153C120.432 153.032 120.88 153.064 121.392 153.096C121.904 153.128 122.464 153.144 123.072 153.144C123.904 153.144 124.992 153.112 126.336 153.048L128.736 153C128.8 153 128.832 153.096 128.832 153.288C128.832 153.48 128.8 153.576 128.736 153.576C127.488 153.576 126.576 153.672 126 153.864C125.456 154.024 125.072 154.328 124.848 154.776C124.656 155.224 124.56 155.928 124.56 156.888V179.112C124.56 180.072 124.656 180.792 124.848 181.272C125.072 181.72 125.472 182.024 126.048 182.184C126.624 182.344 127.536 182.424 128.784 182.424ZM111.984 159.048C111.984 161.352 112.64 163.224 113.952 164.664C115.296 166.072 117.216 166.776 119.712 166.776C120.864 166.776 121.776 166.68 122.448 166.488L121.488 166.824V156.984C121.488 155.704 121.104 154.808 120.336 154.296C119.568 153.752 118.608 153.48 117.456 153.48C113.808 153.48 111.984 155.336 111.984 159.048ZM136.356 173.256H149.268V174.216H136.356V173.256ZM135.108 168.36C135.108 167.4 135.028 166.696 134.868 166.248C134.74 165.768 134.468 165.448 134.052 165.288C133.636 165.128 132.98 165.048 132.084 165.048C131.988 165.048 131.94 164.952 131.94 164.76C131.94 164.568 131.988 164.472 132.084 164.472C132.884 164.472 133.508 164.488 133.956 164.52L136.5 164.568L138.948 164.52C139.428 164.488 140.068 164.472 140.868 164.472C140.932 164.472 140.964 164.568 140.964 164.76C140.964 164.952 140.932 165.048 140.868 165.048C139.972 165.048 139.3 165.144 138.852 165.336C138.436 165.528 138.148 165.864 137.988 166.344C137.86 166.792 137.796 167.496 137.796 168.456V179.112C137.796 180.072 137.86 180.792 137.988 181.272C138.148 181.72 138.436 182.024 138.852 182.184C139.3 182.344 139.972 182.424 140.868 182.424C140.932 182.424 140.964 182.52 140.964 182.712C140.964 182.904 140.932 183 140.868 183C140.036 183 139.38 182.984 138.9 182.952L136.5 182.904L133.956 182.952C133.508 182.984 132.868 183 132.036 183C131.94 183 131.892 182.904 131.892 182.712C131.892 182.52 131.94 182.424 132.036 182.424C132.932 182.424 133.588 182.344 134.004 182.184C134.452 182.024 134.74 181.72 134.868 181.272C135.028 180.792 135.108 180.072 135.108 179.112V168.36ZM148.02 168.36C148.02 167.4 147.94 166.696 147.78 166.248C147.652 165.768 147.38 165.448 146.964 165.288C146.548 165.128 145.892 165.048 144.996 165.048C144.9 165.048 144.852 164.952 144.852 164.76C144.852 164.568 144.9 164.472 144.996 164.472C145.796 164.472 146.42 164.488 146.868 164.52L149.412 164.568L151.86 164.52C152.34 164.488 152.98 164.472 153.78 164.472C153.844 164.472 153.876 164.568 153.876 164.76C153.876 164.952 153.844 165.048 153.78 165.048C152.884 165.048 152.212 165.144 151.764 165.336C151.348 165.528 151.06 165.864 150.9 166.344C150.772 166.792 150.708 167.496 150.708 168.456V179.112C150.708 180.072 150.772 180.792 150.9 181.272C151.06 181.72 151.348 182.024 151.764 182.184C152.212 182.344 152.884 182.424 153.78 182.424C153.844 182.424 153.876 182.52 153.876 182.712C153.876 182.904 153.844 183 153.78 183C152.948 183 152.292 182.984 151.812 182.952L149.412 182.904L146.82 182.952C146.372 182.984 145.748 183 144.948 183C144.852 183 144.804 182.904 144.804 182.712C144.804 182.52 144.852 182.424 144.948 182.424C145.844 182.424 146.5 182.344 146.916 182.184C147.332 182.024 147.62 181.72 147.78 181.272C147.94 180.792 148.02 180.072 148.02 179.112V168.36ZM170.322 183.288C170.194 183.352 170.066 183.384 169.938 183.384C169.458 183.384 169.042 183.016 168.69 182.28C168.338 181.544 168.162 180.568 168.162 179.352V170.28C168.162 166.696 167.154 164.904 165.138 164.904C164.05 164.904 163.218 165.272 162.642 166.008C162.098 166.712 161.73 167.528 161.538 168.456C161.41 169.064 161.218 169.544 160.962 169.896C160.738 170.248 160.322 170.424 159.714 170.424C159.202 170.424 158.802 170.28 158.514 169.992C158.258 169.704 158.13 169.368 158.13 168.984C158.13 168.216 158.626 167.448 159.618 166.68C160.61 165.912 161.794 165.272 163.17 164.76C164.546 164.248 165.778 163.992 166.866 163.992C168.178 163.992 169.17 164.408 169.842 165.24C170.514 166.072 170.85 167.272 170.85 168.84V177.816C170.85 178.936 170.994 179.752 171.282 180.264C171.57 180.776 172.034 181.032 172.674 181.032C173.314 181.032 174.114 180.824 175.074 180.408H175.17C175.298 180.408 175.378 180.488 175.41 180.648C175.442 180.776 175.394 180.872 175.266 180.936L170.322 183.288ZM161.682 183.336C160.498 183.336 159.57 183.032 158.898 182.424C158.258 181.784 157.938 180.984 157.938 180.024C157.938 179.064 158.322 178.232 159.09 177.528C159.858 176.824 161.122 176.152 162.882 175.512L168.642 173.352L168.786 173.976L163.698 175.944C162.802 176.296 162.146 176.712 161.73 177.192C161.346 177.64 161.154 178.184 161.154 178.824C161.154 179.592 161.394 180.248 161.874 180.792C162.386 181.304 163.042 181.56 163.842 181.56C164.482 181.56 165.25 181.304 166.146 180.792L169.17 178.968L169.266 179.592L165.714 181.896C164.914 182.408 164.21 182.776 163.602 183C162.994 183.224 162.354 183.336 161.682 183.336Z" fill="#545454"/>
<path d="M73.792 205.84H86.512L86.848 206.8H73.312L73.792 205.84ZM97.552 219.424C97.68 219.424 97.744 219.52 97.744 219.712C97.744 219.904 97.68 220 97.552 220C96.944 220 96 219.968 94.72 219.904C93.44 219.84 92.512 219.808 91.936 219.808C91.232 219.808 90.336 219.84 89.248 219.904C88.224 219.968 87.44 220 86.896 220C86.768 220 86.704 219.904 86.704 219.712C86.704 219.52 86.768 219.424 86.896 219.424C88.112 219.424 88.976 219.312 89.488 219.088C90.032 218.864 90.304 218.464 90.304 217.888C90.304 217.408 90.112 216.736 89.728 215.872L79.072 193.36L80.272 191.872L70.96 213.904C70.512 214.992 70.288 215.888 70.288 216.592C70.288 218.48 71.856 219.424 74.992 219.424C75.152 219.424 75.232 219.52 75.232 219.712C75.232 219.904 75.152 220 74.992 220C74.416 220 73.584 219.968 72.496 219.904C71.28 219.84 70.224 219.808 69.328 219.808C68.496 219.808 67.536 219.84 66.448 219.904C65.488 219.968 64.688 220 64.048 220C63.888 220 63.808 219.904 63.808 219.712C63.808 219.52 63.888 219.424 64.048 219.424C64.944 219.424 65.696 219.264 66.304 218.944C66.944 218.592 67.536 218 68.08 217.168C68.656 216.304 69.28 215.072 69.952 213.472L80.08 189.568C80.144 189.472 80.256 189.424 80.416 189.424C80.576 189.424 80.672 189.472 80.704 189.568L92.032 213.424C93.12 215.792 94.048 217.392 94.816 218.224C95.584 219.024 96.496 219.424 97.552 219.424ZM103.559 210.256H116.471V211.216H103.559V210.256ZM102.311 205.36C102.311 204.4 102.231 203.696 102.071 203.248C101.943 202.768 101.671 202.448 101.255 202.288C100.839 202.128 100.183 202.048 99.2871 202.048C99.1911 202.048 99.1431 201.952 99.1431 201.76C99.1431 201.568 99.1911 201.472 99.2871 201.472C100.087 201.472 100.711 201.488 101.159 201.52L103.703 201.568L106.151 201.52C106.631 201.488 107.271 201.472 108.071 201.472C108.135 201.472 108.167 201.568 108.167 201.76C108.167 201.952 108.135 202.048 108.071 202.048C107.175 202.048 106.503 202.144 106.055 202.336C105.639 202.528 105.351 202.864 105.191 203.344C105.063 203.792 104.999 204.496 104.999 205.456V216.112C104.999 217.072 105.063 217.792 105.191 218.272C105.351 218.72 105.639 219.024 106.055 219.184C106.503 219.344 107.175 219.424 108.071 219.424C108.135 219.424 108.167 219.52 108.167 219.712C108.167 219.904 108.135 220 108.071 220C107.239 220 106.583 219.984 106.103 219.952L103.703 219.904L101.159 219.952C100.711 219.984 100.071 220 99.2391 220C99.1431 220 99.0951 219.904 99.0951 219.712C99.0951 219.52 99.1431 219.424 99.2391 219.424C100.135 219.424 100.791 219.344 101.207 219.184C101.655 219.024 101.943 218.72 102.071 218.272C102.231 217.792 102.311 217.072 102.311 216.112V205.36ZM115.223 205.36C115.223 204.4 115.143 203.696 114.983 203.248C114.855 202.768 114.583 202.448 114.167 202.288C113.751 202.128 113.095 202.048 112.199 202.048C112.103 202.048 112.055 201.952 112.055 201.76C112.055 201.568 112.103 201.472 112.199 201.472C112.999 201.472 113.623 201.488 114.071 201.52L116.615 201.568L119.063 201.52C119.543 201.488 120.183 201.472 120.983 201.472C121.047 201.472 121.079 201.568 121.079 201.76C121.079 201.952 121.047 202.048 120.983 202.048C120.087 202.048 119.415 202.144 118.967 202.336C118.551 202.528 118.263 202.864 118.103 203.344C117.975 203.792 117.911 204.496 117.911 205.456V216.112C117.911 217.072 117.975 217.792 118.103 218.272C118.263 218.72 118.551 219.024 118.967 219.184C119.415 219.344 120.087 219.424 120.983 219.424C121.047 219.424 121.079 219.52 121.079 219.712C121.079 219.904 121.047 220 120.983 220C120.151 220 119.495 219.984 119.015 219.952L116.615 219.904L114.023 219.952C113.575 219.984 112.951 220 112.151 220C112.055 220 112.007 219.904 112.007 219.712C112.007 219.52 112.055 219.424 112.151 219.424C113.047 219.424 113.703 219.344 114.119 219.184C114.535 219.024 114.823 218.72 114.983 218.272C115.143 217.792 115.223 217.072 115.223 216.112V205.36ZM133.397 200.752C133.461 200.624 133.557 200.56 133.685 200.56C133.813 200.56 133.909 200.624 133.973 200.752L142.421 220H139.205L132.533 204.592L133.637 203.104L126.629 220H125.333L133.397 200.752ZM123.125 226.24C123.125 224.096 123.061 222.32 122.933 220.912C122.869 220.144 122.837 219.648 122.837 219.424C122.837 219.136 122.853 218.976 122.885 218.944C122.949 218.88 123.093 218.848 123.317 218.848H144.245C144.469 218.848 144.597 218.88 144.629 218.944C144.693 218.976 144.725 219.136 144.725 219.424C144.725 219.616 144.693 220.128 144.629 220.96C144.501 222.368 144.437 224.128 144.437 226.24C144.437 226.4 144.341 226.48 144.149 226.48C143.989 226.48 143.909 226.4 143.909 226.24C143.909 222.08 142.085 220 138.437 220H128.693C125.365 220 123.701 222.08 123.701 226.24C123.701 226.4 123.605 226.48 123.413 226.48C123.221 226.48 123.125 226.4 123.125 226.24ZM145.957 233.2C145.861 233.2 145.813 233.104 145.813 232.912C145.813 232.72 145.861 232.624 145.957 232.624C146.981 232.624 147.733 232.528 148.213 232.336C148.693 232.176 149.013 231.872 149.173 231.424C149.365 230.976 149.461 230.272 149.461 229.312V205.36C149.461 204.432 149.349 203.744 149.125 203.296C148.901 202.816 148.501 202.496 147.925 202.336C147.381 202.144 146.549 202.048 145.429 202.048C145.333 202.048 145.285 201.952 145.285 201.76C145.285 201.568 145.333 201.472 145.429 201.472H151.237C151.621 201.472 151.861 201.552 151.957 201.712C152.085 201.872 152.149 202.208 152.149 202.72V229.312C152.149 230.272 152.261 230.976 152.485 231.424C152.741 231.872 153.205 232.176 153.877 232.336C154.549 232.528 155.573 232.624 156.949 232.624C157.045 232.624 157.093 232.72 157.093 232.912C157.093 233.104 157.045 233.2 156.949 233.2C155.829 233.2 154.949 233.184 154.309 233.152L150.805 233.104L147.973 233.152C147.493 233.184 146.821 233.2 145.957 233.2ZM157.237 220.624C155.989 220.624 154.901 220.464 153.973 220.144C153.045 219.856 152.021 219.328 150.901 218.56L151.621 215.92C152.581 217.136 153.589 218.064 154.645 218.704C155.701 219.312 157.045 219.616 158.677 219.616C160.373 219.616 161.765 218.864 162.853 217.36C163.973 215.856 164.533 213.792 164.533 211.168C164.533 208.48 163.925 206.4 162.709 204.928C161.525 203.424 160.021 202.672 158.197 202.672C156.885 202.672 155.701 203.024 154.645 203.728C153.621 204.4 152.533 205.376 151.381 206.656L150.949 206.272C152.581 204.416 154.133 203.056 155.605 202.192C157.109 201.296 158.645 200.848 160.213 200.848C161.525 200.848 162.741 201.2 163.861 201.904C164.981 202.608 165.877 203.632 166.549 204.976C167.221 206.32 167.557 207.888 167.557 209.68C167.557 212.08 167.013 214.112 165.925 215.776C164.837 217.408 163.493 218.624 161.893 219.424C160.325 220.224 158.773 220.624 157.237 220.624ZM179.887 220.576C178.031 220.576 176.447 220.144 175.135 219.28C173.823 218.416 172.815 217.28 172.111 215.872C171.439 214.464 171.103 212.96 171.103 211.36C171.103 209.472 171.551 207.744 172.447 206.176C173.343 204.576 174.559 203.328 176.095 202.432C177.663 201.504 179.375 201.04 181.231 201.04C183.023 201.04 184.399 201.52 185.359 202.48C186.319 203.44 186.799 204.784 186.799 206.512C186.799 206.96 186.751 207.28 186.655 207.472C186.591 207.664 186.447 207.76 186.223 207.76H183.535L183.583 206.896C183.583 205.296 183.231 204.08 182.527 203.248C181.823 202.416 180.863 202 179.647 202C177.951 202 176.623 202.672 175.663 204.016C174.735 205.36 174.271 207.2 174.271 209.536C174.271 212.32 174.927 214.576 176.239 216.304C177.551 218.032 179.391 218.896 181.759 218.896C182.719 218.896 183.535 218.768 184.207 218.512C184.911 218.256 185.695 217.856 186.559 217.312H186.607C186.703 217.312 186.783 217.376 186.847 217.504C186.943 217.6 186.959 217.696 186.895 217.792C184.719 219.648 182.383 220.576 179.887 220.576ZM173.359 207.184L184.255 206.992V207.76L173.407 207.808L173.359 207.184ZM193.769 220.48C193.641 220.48 193.529 220.448 193.433 220.384C193.337 220.352 193.289 220.304 193.289 220.24V205.36C193.289 204.4 193.209 203.696 193.049 203.248C192.921 202.768 192.649 202.448 192.233 202.288C191.817 202.128 191.161 202.048 190.265 202.048C190.201 202.048 190.169 201.952 190.169 201.76C190.169 201.568 190.201 201.472 190.265 201.472C191.033 201.472 191.625 201.488 192.041 201.52L194.585 201.568L197.369 201.52C197.785 201.488 198.345 201.472 199.049 201.472C199.145 201.472 199.193 201.568 199.193 201.76C199.193 201.952 199.145 202.048 199.049 202.048C198.153 202.048 197.497 202.128 197.081 202.288C196.665 202.448 196.377 202.768 196.217 203.248C196.057 203.696 195.977 204.4 195.977 205.36V217.456L194.969 217.792L208.361 201.136C208.457 201.04 208.569 200.992 208.697 200.992C208.825 200.992 208.937 201.024 209.033 201.088C209.129 201.12 209.177 201.168 209.177 201.232V216.112C209.177 217.072 209.241 217.792 209.369 218.272C209.529 218.72 209.817 219.024 210.233 219.184C210.649 219.344 211.305 219.424 212.201 219.424C212.265 219.424 212.297 219.52 212.297 219.712C212.297 219.904 212.265 220 212.201 220C211.401 220 210.777 219.984 210.329 219.952L207.881 219.904L205.289 219.952C204.809 219.984 204.185 220 203.417 220C203.321 220 203.273 219.904 203.273 219.712C203.273 219.52 203.321 219.424 203.417 219.424C204.313 219.424 204.969 219.344 205.385 219.184C205.801 219.024 206.089 218.72 206.249 218.272C206.409 217.792 206.489 217.072 206.489 216.112V203.968L207.545 203.632L194.105 220.336C194.009 220.432 193.897 220.48 193.769 220.48ZM201.353 197.056C202.313 197.056 203.001 196.8 203.417 196.288C203.833 195.776 204.137 195.072 204.329 194.176C204.521 193.408 204.729 192.832 204.953 192.448C205.209 192.064 205.625 191.872 206.201 191.872C207.129 191.872 207.593 192.352 207.593 193.312C207.593 194.08 207.289 194.8 206.681 195.472C206.105 196.144 205.337 196.688 204.377 197.104C203.449 197.488 202.457 197.68 201.401 197.68C200.313 197.68 199.289 197.472 198.329 197.056C197.369 196.64 196.601 196.096 196.025 195.424C195.449 194.72 195.161 194 195.161 193.264C195.161 192.336 195.625 191.872 196.553 191.872C197.161 191.872 197.577 192.048 197.801 192.4C198.025 192.752 198.249 193.344 198.473 194.176C198.665 195.104 198.937 195.824 199.289 196.336C199.641 196.816 200.329 197.056 201.353 197.056Z" fill="#545454"/>
<path d="M127.56 199.52C127.56 198.293 127.853 197.213 128.44 196.28C129.027 195.347 129.773 194.493 130.68 193.72C131.613 192.947 132.6 192.213 133.64 191.52C134.68 190.8 135.653 190.053 136.56 189.28C137.493 188.507 138.253 187.68 138.84 186.8C139.427 185.92 139.72 184.907 139.72 183.76C139.72 182.56 139.4 181.64 138.76 181C138.12 180.333 137.28 180 136.24 180C135.227 180 134.44 180.307 133.88 180.92C133.347 181.533 133.08 182.507 133.08 183.84C133.08 185.227 133.373 186.64 133.96 188.08C134.547 189.493 135.36 190.893 136.4 192.28C137.44 193.667 138.627 195.013 139.96 196.32C141.32 197.627 142.747 198.84 144.24 199.96C145.92 201.213 147.52 202.24 149.04 203.04C150.56 203.813 151.84 204.307 152.88 204.52C153.013 204.547 153.067 204.64 153.04 204.8C153.013 204.933 152.96 205 152.88 205C152.293 205 151.613 205 150.84 205C150.067 205 149.307 205 148.56 205C148.213 205 147.76 204.893 147.2 204.68C146.64 204.467 145.92 204.093 145.04 203.56C144.187 203 143.133 202.2 141.88 201.16C140.547 200.093 139.24 198.933 137.96 197.68C136.68 196.427 135.507 195.133 134.44 193.8C133.4 192.44 132.56 191.12 131.92 189.84C131.573 189.067 131.293 188.32 131.08 187.6C130.867 186.88 130.76 186.187 130.76 185.52C130.76 184.347 131.04 183.28 131.6 182.32C132.16 181.36 132.933 180.6 133.92 180.04C134.907 179.453 136.067 179.16 137.4 179.16C138.12 179.16 138.84 179.28 139.56 179.52C140.28 179.733 140.88 180.133 141.36 180.72C141.84 181.28 142.08 182.08 142.08 183.12C142.08 184.267 141.787 185.267 141.2 186.12C140.64 186.947 139.893 187.72 138.96 188.44C138.053 189.133 137.093 189.813 136.08 190.48C135.067 191.12 134.107 191.813 133.2 192.56C132.293 193.28 131.547 194.093 130.96 195C130.4 195.88 130.12 196.92 130.12 198.12C130.12 199.24 130.4 200.28 130.96 201.24C131.547 202.173 132.347 202.92 133.36 203.48C134.373 204.013 135.52 204.28 136.8 204.28C138.053 204.28 139.213 204.013 140.28 203.48C141.347 202.92 142.253 202.187 143 201.28C143.773 200.347 144.36 199.293 144.76 198.12C145.187 196.92 145.4 195.68 145.4 194.4C145.4 193.547 145.227 192.853 144.88 192.32C144.56 191.787 143.787 191.52 142.56 191.52C142.48 191.52 142.427 191.44 142.4 191.28C142.4 191.12 142.453 191.04 142.56 191.04L150.92 191C151.027 191 151.08 191.08 151.08 191.24C151.08 191.4 151.027 191.48 150.92 191.48C149.987 191.48 149.293 191.573 148.84 191.76C148.387 191.92 148.067 192.173 147.88 192.52C147.693 192.867 147.52 193.307 147.36 193.84C147.12 194.747 146.787 195.733 146.36 196.8C145.96 197.84 145.44 198.88 144.8 199.92C144.187 200.933 143.427 201.867 142.52 202.72C141.613 203.547 140.533 204.213 139.28 204.72C138.053 205.227 136.627 205.48 135 205.48C133.293 205.48 131.88 205.2 130.76 204.64C129.667 204.053 128.853 203.307 128.32 202.4C127.813 201.467 127.56 200.507 127.56 199.52Z" fill="#545454" fill-opacity="0.46"/>
<path d="M69.8223 121V120.12C71.5599 119.91 72.7386 119.666 73.3584 119.39C73.9893 119.113 74.3047 118.858 74.3047 118.626V105.395C74.3047 104.952 74.2881 104.609 74.2549 104.365C74.2217 104.111 74.1387 103.911 74.0059 103.768C73.873 103.624 73.4801 103.552 72.8271 103.552C72.1742 103.541 71.1172 103.69 69.6562 104L69.3076 103.153C69.9274 102.976 70.68 102.716 71.5654 102.373C72.4619 102.03 73.3307 101.67 74.1719 101.294C75.0241 100.918 75.6937 100.597 76.1807 100.331L76.7949 100.912V118.626C76.7949 118.836 77.0661 119.085 77.6084 119.373C78.1618 119.661 79.2741 119.91 80.9453 120.12V121H69.8223ZM96.8496 114.193C96.8496 115.477 96.5895 116.678 96.0693 117.796C95.5602 118.903 94.8132 119.799 93.8281 120.485C92.8542 121.16 91.6699 121.498 90.2754 121.498C89.2572 121.498 88.2389 121.31 87.2207 120.934C86.2025 120.546 85.2174 119.91 84.2656 119.024L84.8467 117.912C86.0199 118.72 86.9993 119.246 87.7852 119.489C88.571 119.722 89.2793 119.838 89.9102 119.838C90.873 119.838 91.6699 119.605 92.3008 119.141C92.9316 118.665 93.402 118.05 93.7119 117.298C94.0329 116.545 94.1934 115.748 94.1934 114.907C94.1934 113.391 93.8226 112.174 93.0811 111.255C92.3506 110.336 91.2106 109.877 89.6611 109.877C89.1852 109.877 88.6042 109.988 87.918 110.209C87.2428 110.43 86.612 110.762 86.0254 111.205L85.2451 110.657C85.3447 110.06 85.4665 109.335 85.6104 108.482C85.7542 107.619 85.8926 106.728 86.0254 105.81C86.1693 104.88 86.291 103.994 86.3906 103.153C86.5013 102.301 86.5732 101.582 86.6064 100.995H93.8447C94.4756 100.995 94.9681 100.945 95.3223 100.846C95.6764 100.746 95.8535 100.696 95.8535 100.696L96.335 101.178C96.0915 101.532 95.7871 101.903 95.4219 102.29C95.0566 102.677 94.7467 102.965 94.4922 103.153H88.0674C88.0452 103.585 87.9899 104.16 87.9014 104.88C87.8128 105.588 87.7132 106.285 87.6025 106.972C87.5029 107.647 87.4199 108.15 87.3535 108.482C87.7962 108.35 88.3164 108.244 88.9141 108.167C89.5117 108.09 90.0928 108.051 90.6572 108.051C91.9964 108.051 93.1253 108.339 94.0439 108.914C94.9626 109.479 95.6598 110.231 96.1357 111.172C96.6117 112.102 96.8496 113.109 96.8496 114.193ZM105.067 118.958C105.067 119.722 104.846 120.364 104.403 120.884C103.972 121.404 103.429 121.664 102.776 121.664C101.67 121.664 101.116 121.044 101.116 119.805C101.116 119.052 101.343 118.41 101.797 117.879C102.262 117.348 102.804 117.082 103.424 117.082C104.52 117.082 105.067 117.707 105.067 118.958ZM121.437 111.006C121.437 112.91 121.143 114.658 120.557 116.252C119.97 117.835 119.146 119.107 118.083 120.07C117.032 121.022 115.803 121.498 114.397 121.498C112.992 121.498 111.813 121.022 110.861 120.07C109.921 119.107 109.207 117.835 108.72 116.252C108.244 114.658 108.006 112.91 108.006 111.006C108.006 109.102 108.299 107.354 108.886 105.76C109.483 104.166 110.308 102.893 111.359 101.941C112.422 100.979 113.65 100.497 115.045 100.497C116.451 100.497 117.624 100.973 118.564 101.925C119.516 102.866 120.23 104.133 120.706 105.727C121.193 107.32 121.437 109.08 121.437 111.006ZM118.714 111.62C118.714 109.595 118.509 107.901 118.1 106.54C117.69 105.168 117.159 104.138 116.506 103.452C115.853 102.755 115.15 102.406 114.397 102.406C113.257 102.406 112.361 103.026 111.708 104.266C111.055 105.505 110.729 107.514 110.729 110.292C110.729 113.325 111.138 115.632 111.957 117.215C112.787 118.798 113.816 119.589 115.045 119.589C116.196 119.589 117.092 118.964 117.734 117.713C118.387 116.451 118.714 114.42 118.714 111.62ZM136.594 114.193C136.594 115.477 136.334 116.678 135.813 117.796C135.304 118.903 134.557 119.799 133.572 120.485C132.598 121.16 131.414 121.498 130.02 121.498C129.001 121.498 127.983 121.31 126.965 120.934C125.947 120.546 124.962 119.91 124.01 119.024L124.591 117.912C125.764 118.72 126.743 119.246 127.529 119.489C128.315 119.722 129.023 119.838 129.654 119.838C130.617 119.838 131.414 119.605 132.045 119.141C132.676 118.665 133.146 118.05 133.456 117.298C133.777 116.545 133.938 115.748 133.938 114.907C133.938 113.391 133.567 112.174 132.825 111.255C132.095 110.336 130.955 109.877 129.405 109.877C128.929 109.877 128.348 109.988 127.662 110.209C126.987 110.43 126.356 110.762 125.77 111.205L124.989 110.657C125.089 110.06 125.211 109.335 125.354 108.482C125.498 107.619 125.637 106.728 125.77 105.81C125.913 104.88 126.035 103.994 126.135 103.153C126.245 102.301 126.317 101.582 126.351 100.995H133.589C134.22 100.995 134.712 100.945 135.066 100.846C135.421 100.746 135.598 100.696 135.598 100.696L136.079 101.178C135.836 101.532 135.531 101.903 135.166 102.29C134.801 102.677 134.491 102.965 134.236 103.153H127.812C127.789 103.585 127.734 104.16 127.646 104.88C127.557 105.588 127.457 106.285 127.347 106.972C127.247 107.647 127.164 108.15 127.098 108.482C127.54 108.35 128.061 108.244 128.658 108.167C129.256 108.09 129.837 108.051 130.401 108.051C131.741 108.051 132.869 108.339 133.788 108.914C134.707 109.479 135.404 110.231 135.88 111.172C136.356 112.102 136.594 113.109 136.594 114.193ZM144.812 118.958C144.812 119.722 144.59 120.364 144.147 120.884C143.716 121.404 143.174 121.664 142.521 121.664C141.414 121.664 140.86 121.044 140.86 119.805C140.86 119.052 141.087 118.41 141.541 117.879C142.006 117.348 142.548 117.082 143.168 117.082C144.264 117.082 144.812 117.707 144.812 118.958ZM160.118 121H148.597L148.115 119.771C150.085 117.48 151.69 115.571 152.93 114.044C154.169 112.517 155.127 111.249 155.802 110.242C156.477 109.224 156.942 108.366 157.196 107.669C157.451 106.961 157.578 106.291 157.578 105.66C157.578 104.642 157.324 103.779 156.814 103.07C156.305 102.351 155.448 101.991 154.241 101.991C153.644 101.991 153.107 102.174 152.631 102.539C152.166 102.904 151.801 103.358 151.535 103.9C151.27 104.443 151.137 104.974 151.137 105.494C150.76 105.704 150.439 105.882 150.174 106.025C149.908 106.158 149.521 106.252 149.012 106.308L148.563 105.81C148.563 105.234 148.752 104.636 149.128 104.017C149.515 103.397 150.035 102.821 150.688 102.29C151.341 101.759 152.072 101.327 152.88 100.995C153.688 100.663 154.518 100.497 155.37 100.497C156.709 100.497 157.838 100.879 158.757 101.643C159.687 102.395 160.151 103.579 160.151 105.195C160.151 105.937 159.985 106.701 159.653 107.486C159.332 108.272 158.807 109.18 158.076 110.209C157.357 111.227 156.405 112.45 155.221 113.878C154.048 115.295 152.609 116.999 150.904 118.991H157.844C158.22 118.991 158.519 118.842 158.74 118.543C158.962 118.244 159.128 117.901 159.238 117.514C159.36 117.126 159.438 116.783 159.471 116.484C159.515 116.186 159.537 116.036 159.537 116.036L160.367 116.235L160.118 121ZM177.151 111.006C177.151 112.91 176.858 114.658 176.271 116.252C175.685 117.835 174.86 119.107 173.798 120.07C172.746 121.022 171.518 121.498 170.112 121.498C168.707 121.498 167.528 121.022 166.576 120.07C165.635 119.107 164.922 117.835 164.435 116.252C163.959 114.658 163.721 112.91 163.721 111.006C163.721 109.102 164.014 107.354 164.601 105.76C165.198 104.166 166.023 102.893 167.074 101.941C168.137 100.979 169.365 100.497 170.76 100.497C172.165 100.497 173.339 100.973 174.279 101.925C175.231 102.866 175.945 104.133 176.421 105.727C176.908 107.32 177.151 109.08 177.151 111.006ZM174.429 111.62C174.429 109.595 174.224 107.901 173.814 106.54C173.405 105.168 172.874 104.138 172.221 103.452C171.568 102.755 170.865 102.406 170.112 102.406C168.972 102.406 168.076 103.026 167.423 104.266C166.77 105.505 166.443 107.514 166.443 110.292C166.443 113.325 166.853 115.632 167.672 117.215C168.502 118.798 169.531 119.589 170.76 119.589C171.911 119.589 172.807 118.964 173.449 117.713C174.102 116.451 174.429 114.42 174.429 111.62ZM192.06 121H180.538L180.057 119.771C182.027 117.48 183.632 115.571 184.871 114.044C186.111 112.517 187.068 111.249 187.743 110.242C188.418 109.224 188.883 108.366 189.138 107.669C189.392 106.961 189.52 106.291 189.52 105.66C189.52 104.642 189.265 103.779 188.756 103.07C188.247 102.351 187.389 101.991 186.183 101.991C185.585 101.991 185.048 102.174 184.572 102.539C184.107 102.904 183.742 103.358 183.477 103.9C183.211 104.443 183.078 104.974 183.078 105.494C182.702 105.704 182.381 105.882 182.115 106.025C181.85 106.158 181.462 106.252 180.953 106.308L180.505 105.81C180.505 105.234 180.693 104.636 181.069 104.017C181.457 103.397 181.977 102.821 182.63 102.29C183.283 101.759 184.013 101.327 184.821 100.995C185.629 100.663 186.459 100.497 187.312 100.497C188.651 100.497 189.78 100.879 190.698 101.643C191.628 102.395 192.093 103.579 192.093 105.195C192.093 105.937 191.927 106.701 191.595 107.486C191.274 108.272 190.748 109.18 190.018 110.209C189.298 111.227 188.346 112.45 187.162 113.878C185.989 115.295 184.55 116.999 182.846 118.991H189.785C190.161 118.991 190.46 118.842 190.682 118.543C190.903 118.244 191.069 117.901 191.18 117.514C191.301 117.126 191.379 116.783 191.412 116.484C191.456 116.186 191.479 116.036 191.479 116.036L192.309 116.235L192.06 121ZM209.026 114.16C209.026 114.935 208.894 115.748 208.628 116.601C208.362 117.453 207.964 118.25 207.433 118.991C206.912 119.733 206.265 120.336 205.49 120.801C204.715 121.266 203.819 121.498 202.801 121.498C201.594 121.498 200.493 121.149 199.497 120.452C198.501 119.755 197.704 118.781 197.106 117.53C196.52 116.269 196.227 114.808 196.227 113.147C196.227 111.056 196.631 109.102 197.438 107.287C198.246 105.472 199.48 103.939 201.141 102.688C202.801 101.438 204.915 100.63 207.482 100.265L207.798 101.244C205.784 101.709 204.112 102.511 202.784 103.651C201.467 104.78 200.488 106.092 199.846 107.586C199.204 109.069 198.883 110.569 198.883 112.085C198.883 114.708 199.298 116.645 200.128 117.896C200.969 119.135 202.076 119.755 203.448 119.755C204.245 119.755 204.865 119.522 205.308 119.058C205.761 118.582 206.077 117.995 206.254 117.298C206.442 116.59 206.536 115.898 206.536 115.223C206.536 113.839 206.326 112.777 205.905 112.035C205.496 111.283 204.992 110.762 204.395 110.475C203.808 110.187 203.243 110.043 202.701 110.043C202.059 110.043 201.334 110.253 200.526 110.674C199.729 111.094 199.005 111.814 198.352 112.832L198.136 111.238C198.722 110.452 199.342 109.844 199.995 109.412C200.648 108.969 201.273 108.66 201.871 108.482C202.469 108.305 202.972 108.217 203.382 108.217C205.164 108.217 206.547 108.754 207.532 109.827C208.528 110.901 209.026 112.345 209.026 114.16Z" fill="#545454"/>
</svg>
