<svg width="399" height="276" viewBox="0 0 399 276" fill="none" xmlns="http://www.w3.org/2000/svg">
<path d="M92.7959 72.04C92.7959 70.9333 92.5559 70.1467 92.0759 69.68C91.6093 69.2267 90.9959 69 90.2359 69H82.0359C82.0093 69 81.9959 68.96 81.9959 68.88C81.9959 68.8 82.0093 68.76 82.0359 68.76C82.4759 68.76 82.7959 68.7267 82.9959 68.66C83.2093 68.5933 83.3559 68.4667 83.4359 68.28C83.5159 68.08 83.5559 67.78 83.5559 67.38V61.26C83.5559 60.86 83.5159 60.5667 83.4359 60.38C83.3559 60.1933 83.2093 60.0667 82.9959 60C82.7959 59.92 82.4759 59.88 82.0359 59.88C82.0093 59.88 81.9959 59.84 81.9959 59.76C81.9959 59.68 82.0093 59.64 82.0359 59.64L82.9559 59.66C83.4359 59.6867 83.8293 59.7 84.1359 59.7C84.4559 59.7 84.8693 59.6867 85.3759 59.66L86.2559 59.64C86.2826 59.64 86.2959 59.68 86.2959 59.76C86.2959 59.84 86.2826 59.88 86.2559 59.88C85.8159 59.88 85.4893 59.92 85.2759 60C85.0759 60.0667 84.9359 60.1933 84.8559 60.38C84.7893 60.5667 84.7559 60.86 84.7559 61.26V67.34C84.7559 67.7133 84.7893 67.9867 84.8559 68.16C84.9359 68.3333 85.0759 68.46 85.2759 68.54C85.4893 68.6067 85.8159 68.64 86.2559 68.64H88.8559C89.2826 68.64 89.5959 68.6067 89.7959 68.54C90.0093 68.46 90.1493 68.3333 90.2159 68.16C90.2959 67.9733 90.3359 67.7 90.3359 67.34V61.26C90.3359 60.86 90.2959 60.5667 90.2159 60.38C90.1493 60.1933 90.0093 60.0667 89.7959 60C89.5959 59.92 89.2826 59.88 88.8559 59.88C88.8159 59.88 88.7959 59.84 88.7959 59.76C88.7959 59.68 88.8159 59.64 88.8559 59.64L89.7159 59.66C90.2226 59.6867 90.6359 59.7 90.9559 59.7C91.2493 59.7 91.6493 59.6867 92.1559 59.66L93.0559 59.64C93.0826 59.64 93.0959 59.68 93.0959 59.76C93.0959 59.84 93.0826 59.88 93.0559 59.88C92.6159 59.88 92.2893 59.92 92.0759 60C91.8759 60.0667 91.7359 60.1933 91.6559 60.38C91.5759 60.5667 91.5359 60.86 91.5359 61.26V67.38C91.5359 67.8333 91.5626 68.1533 91.6159 68.34C91.6826 68.5267 91.8026 68.6467 91.9759 68.7C92.1626 68.74 92.4893 68.76 92.9559 68.76C93.0493 68.76 93.1026 68.7733 93.1159 68.8C93.1293 68.8133 93.1359 68.88 93.1359 69L93.1159 69.5C93.0493 70.2067 93.0159 71.0533 93.0159 72.04C93.0159 72.1067 92.9759 72.14 92.8959 72.14C92.8293 72.14 92.7959 72.1067 92.7959 72.04ZM94.4578 69C94.4311 69 94.4178 68.96 94.4178 68.88C94.4178 68.8 94.4311 68.76 94.4578 68.76C94.8978 68.76 95.2178 68.7267 95.4178 68.66C95.6178 68.5933 95.7511 68.4667 95.8178 68.28C95.8978 68.08 95.9378 67.78 95.9378 67.38V61.26C95.9378 60.86 95.8978 60.5667 95.8178 60.38C95.7511 60.1933 95.6178 60.0667 95.4178 60C95.2178 59.92 94.8978 59.88 94.4578 59.88C94.4311 59.88 94.4178 59.84 94.4178 59.76C94.4178 59.68 94.4311 59.64 94.4578 59.64H101.418C101.551 59.64 101.618 59.6933 101.618 59.8L101.638 61.04C101.651 61.2933 101.658 61.6133 101.658 62C101.658 62.04 101.618 62.06 101.538 62.06C101.458 62.06 101.418 62.04 101.418 62C101.364 61.3867 101.138 60.8867 100.738 60.5C100.351 60.1 99.8711 59.9 99.2978 59.9H98.7378C98.2711 59.9 97.9311 59.94 97.7178 60.02C97.5045 60.0867 97.3578 60.2133 97.2778 60.4C97.1978 60.5867 97.1578 60.88 97.1578 61.28V67.3C97.1578 67.6867 97.1978 67.98 97.2778 68.18C97.3578 68.3667 97.5045 68.5 97.7178 68.58C97.9445 68.6467 98.2845 68.68 98.7378 68.68H99.6978C100.244 68.68 100.724 68.4667 101.138 68.04C101.564 67.6 101.851 67.0333 101.998 66.34C101.998 66.3 102.031 66.28 102.098 66.28C102.178 66.28 102.218 66.3 102.218 66.34C102.124 67.3 102.078 68.0867 102.078 68.7C102.078 68.8067 102.058 68.8867 102.018 68.94C101.978 68.98 101.898 69 101.778 69H94.4578ZM100.618 64.7C100.564 64.7 100.271 64.66 99.7378 64.58C99.2178 64.4867 98.1911 64.44 96.6578 64.44V64.02C98.1778 64.02 99.1978 63.9867 99.7178 63.92C100.251 63.8533 100.551 63.82 100.618 63.82C100.684 63.82 100.718 63.96 100.718 64.24C100.718 64.5467 100.684 64.7 100.618 64.7ZM106.435 67.3C106.435 67.7267 106.482 68.04 106.575 68.24C106.668 68.4267 106.848 68.56 107.115 68.64C107.395 68.72 107.828 68.76 108.415 68.76C108.455 68.76 108.475 68.8 108.475 68.88C108.475 68.96 108.455 69 108.415 69C107.935 69 107.568 68.9933 107.315 68.98L105.835 68.96L104.655 68.98C104.428 68.9933 104.122 69 103.735 69C103.708 69 103.695 68.96 103.695 68.88C103.695 68.8 103.708 68.76 103.735 68.76C104.175 68.76 104.495 68.7267 104.695 68.66C104.895 68.5933 105.028 68.4667 105.095 68.28C105.175 68.08 105.215 67.78 105.215 67.38V61.26C105.215 60.86 105.175 60.5667 105.095 60.38C105.028 60.1933 104.888 60.0667 104.675 60C104.475 59.92 104.162 59.88 103.735 59.88C103.708 59.88 103.695 59.84 103.695 59.76C103.695 59.68 103.708 59.64 103.735 59.64L104.635 59.66C105.142 59.6867 105.535 59.7 105.815 59.7C106.042 59.7 106.255 59.6933 106.455 59.68C106.668 59.6667 106.848 59.6533 106.995 59.64C107.422 59.6 107.808 59.58 108.155 59.58C110.355 59.58 111.455 60.3933 111.455 62.02C111.455 62.66 111.288 63.2 110.955 63.64C110.635 64.0667 110.222 64.3867 109.715 64.6C109.222 64.8133 108.708 64.92 108.175 64.92C107.815 64.92 107.522 64.8933 107.295 64.84C107.255 64.84 107.235 64.8067 107.235 64.74C107.235 64.6333 107.275 64.58 107.355 64.58C107.555 64.62 107.762 64.64 107.975 64.64C108.562 64.64 109.055 64.4533 109.455 64.08C109.868 63.6933 110.075 63.14 110.075 62.42C110.075 61.58 109.855 60.9467 109.415 60.52C108.988 60.08 108.408 59.86 107.675 59.86C107.328 59.86 107.075 59.8867 106.915 59.94C106.755 59.9933 106.635 60.12 106.555 60.32C106.475 60.52 106.435 60.8467 106.435 61.3V67.3ZM112.973 69C112.947 69 112.933 68.96 112.933 68.88C112.933 68.8 112.947 68.76 112.973 68.76C113.413 68.76 113.733 68.7267 113.933 68.66C114.133 68.5933 114.267 68.4667 114.333 68.28C114.413 68.08 114.453 67.78 114.453 67.38V61.26C114.453 60.86 114.413 60.5667 114.333 60.38C114.267 60.1933 114.133 60.0667 113.933 60C113.733 59.92 113.413 59.88 112.973 59.88C112.947 59.88 112.933 59.84 112.933 59.76C112.933 59.68 112.947 59.64 112.973 59.64H119.933C120.067 59.64 120.133 59.6933 120.133 59.8L120.153 61.04C120.167 61.2933 120.173 61.6133 120.173 62C120.173 62.04 120.133 62.06 120.053 62.06C119.973 62.06 119.933 62.04 119.933 62C119.88 61.3867 119.653 60.8867 119.253 60.5C118.867 60.1 118.387 59.9 117.813 59.9H117.253C116.787 59.9 116.447 59.94 116.233 60.02C116.02 60.0867 115.873 60.2133 115.793 60.4C115.713 60.5867 115.673 60.88 115.673 61.28V67.3C115.673 67.6867 115.713 67.98 115.793 68.18C115.873 68.3667 116.02 68.5 116.233 68.58C116.46 68.6467 116.8 68.68 117.253 68.68H118.213C118.76 68.68 119.24 68.4667 119.653 68.04C120.08 67.6 120.367 67.0333 120.513 66.34C120.513 66.3 120.547 66.28 120.613 66.28C120.693 66.28 120.733 66.3 120.733 66.34C120.64 67.3 120.593 68.0867 120.593 68.7C120.593 68.8067 120.573 68.8867 120.533 68.94C120.493 68.98 120.413 69 120.293 69H112.973ZM119.133 64.7C119.08 64.7 118.787 64.66 118.253 64.58C117.733 64.4867 116.707 64.44 115.173 64.44V64.02C116.693 64.02 117.713 63.9867 118.233 63.92C118.767 63.8533 119.067 63.82 119.133 63.82C119.2 63.82 119.233 63.96 119.233 64.24C119.233 64.5467 119.2 64.7 119.133 64.7ZM123.831 60.08L124.231 60.14L124.011 66.82C123.997 67.5267 124.091 68.0267 124.291 68.32C124.491 68.6133 124.831 68.76 125.311 68.76C125.351 68.76 125.371 68.8 125.371 68.88C125.371 68.96 125.351 69 125.311 69C125.031 69 124.817 68.9933 124.671 68.98L123.791 68.96L122.951 68.98C122.777 68.9933 122.537 69 122.231 69C122.204 69 122.191 68.96 122.191 68.88C122.191 68.8 122.204 68.76 122.231 68.76C122.724 68.76 123.071 68.6133 123.271 68.32C123.471 68.0267 123.584 67.5267 123.611 66.82L123.831 60.08ZM134.731 68.76C134.757 68.76 134.771 68.8 134.771 68.88C134.771 68.96 134.757 69 134.731 69C134.357 69 134.064 68.9933 133.851 68.98L132.671 68.96L131.311 68.98C131.084 68.9933 130.771 69 130.371 69C130.344 69 130.331 68.96 130.331 68.88C130.331 68.8 130.344 68.76 130.371 68.76C130.864 68.76 131.231 68.7267 131.471 68.66C131.711 68.5933 131.871 68.4667 131.951 68.28C132.031 68.08 132.064 67.78 132.051 67.38L131.771 60.04L132.111 59.88L128.351 68.86C128.324 68.9133 128.277 68.94 128.211 68.94C128.131 68.94 128.077 68.9133 128.051 68.86L124.231 61.3C123.764 60.3533 123.151 59.88 122.391 59.88C122.351 59.88 122.331 59.84 122.331 59.76C122.331 59.68 122.351 59.64 122.391 59.64L123.491 59.66L124.451 59.64C124.624 59.64 124.764 59.7 124.871 59.82C124.977 59.94 125.144 60.2267 125.371 60.68L128.751 67.4L128.191 68.3L131.611 60.14C131.664 59.9933 131.744 59.8733 131.851 59.78C131.971 59.6867 132.091 59.64 132.211 59.64L133.271 59.66L134.611 59.64C134.637 59.64 134.651 59.68 134.651 59.76C134.651 59.84 134.637 59.88 134.611 59.88C134.011 59.88 133.591 59.9733 133.351 60.16C133.111 60.3333 133.004 60.6867 133.031 61.22L133.271 67.38C133.297 67.7933 133.344 68.0933 133.411 68.28C133.477 68.4667 133.604 68.5933 133.791 68.66C133.991 68.7267 134.304 68.76 134.731 68.76ZM140.82 69.24C139.887 69.24 139.054 69.02 138.32 68.58C137.6 68.14 137.04 67.5467 136.64 66.8C136.24 66.0533 136.04 65.2467 136.04 64.38C136.04 63.34 136.307 62.4467 136.84 61.7C137.387 60.94 138.074 60.3667 138.9 59.98C139.74 59.5933 140.594 59.4 141.46 59.4C142.394 59.4 143.214 59.6333 143.92 60.1C144.64 60.5533 145.187 61.1467 145.56 61.88C145.947 62.6133 146.14 63.38 146.14 64.18C146.14 65.0733 145.9 65.9133 145.42 66.7C144.94 67.4733 144.294 68.0933 143.48 68.56C142.667 69.0133 141.78 69.24 140.82 69.24ZM141.34 68.82C142.38 68.82 143.207 68.4533 143.82 67.72C144.447 66.9867 144.76 65.9733 144.76 64.68C144.76 63.7867 144.6 62.9733 144.28 62.24C143.974 61.5067 143.52 60.92 142.92 60.48C142.32 60.04 141.607 59.82 140.78 59.82C139.714 59.82 138.887 60.18 138.3 60.9C137.714 61.6067 137.42 62.6 137.42 63.88C137.42 64.8 137.574 65.6333 137.88 66.38C138.2 67.1267 138.654 67.72 139.24 68.16C139.84 68.6 140.54 68.82 141.34 68.82ZM155.883 61.3C155.883 60.9 155.843 60.6067 155.763 60.42C155.697 60.22 155.557 60.08 155.343 60C155.143 59.92 154.83 59.88 154.403 59.88C154.363 59.88 154.343 59.84 154.343 59.76C154.343 59.68 154.363 59.64 154.403 59.64L155.283 59.66C155.763 59.6867 156.17 59.7 156.503 59.7C156.797 59.7 157.197 59.6867 157.703 59.66L158.603 59.64C158.643 59.64 158.663 59.68 158.663 59.76C158.663 59.84 158.643 59.88 158.603 59.88C158.163 59.88 157.837 59.92 157.623 60C157.423 60.0667 157.283 60.1933 157.203 60.38C157.123 60.5667 157.083 60.86 157.083 61.26V67.38C157.083 67.78 157.123 68.08 157.203 68.28C157.283 68.4667 157.423 68.5933 157.623 68.66C157.837 68.7267 158.163 68.76 158.603 68.76C158.643 68.76 158.663 68.8 158.663 68.88C158.663 68.96 158.643 69 158.603 69C158.23 69 157.93 68.9933 157.703 68.98L156.503 68.96L155.283 68.98C155.07 68.9933 154.777 69 154.403 69C154.363 69 154.343 68.96 154.343 68.88C154.343 68.8 154.363 68.76 154.403 68.76C154.843 68.76 155.163 68.7267 155.363 68.66C155.563 68.5933 155.697 68.4667 155.763 68.28C155.843 68.08 155.883 67.78 155.883 67.38V61.3ZM149.623 64.1H156.403V64.46H149.623V64.1ZM149.083 61.26C149.083 60.86 149.043 60.5667 148.963 60.38C148.897 60.1933 148.757 60.0667 148.543 60C148.343 59.92 148.023 59.88 147.583 59.88C147.557 59.88 147.543 59.84 147.543 59.76C147.543 59.68 147.557 59.64 147.583 59.64L148.483 59.66C148.99 59.6867 149.383 59.7 149.663 59.7C149.997 59.7 150.417 59.6867 150.923 59.66L151.783 59.64C151.81 59.64 151.823 59.68 151.823 59.76C151.823 59.84 151.81 59.88 151.783 59.88C151.357 59.88 151.037 59.92 150.823 60C150.61 60.08 150.463 60.22 150.383 60.42C150.317 60.6067 150.283 60.9 150.283 61.3V67.38C150.283 67.7933 150.317 68.0933 150.383 68.28C150.463 68.4667 150.603 68.5933 150.803 68.66C151.003 68.7267 151.33 68.76 151.783 68.76C151.81 68.76 151.823 68.8 151.823 68.88C151.823 68.96 151.81 69 151.783 69C151.41 69 151.117 68.9933 150.903 68.98L149.663 68.96L148.483 68.98C148.257 68.9933 147.95 69 147.563 69C147.537 69 147.523 68.96 147.523 68.88C147.523 68.8 147.537 68.76 147.563 68.76C148.003 68.76 148.323 68.7267 148.523 68.66C148.737 68.5933 148.883 68.4667 148.963 68.28C149.043 68.08 149.083 67.78 149.083 67.38V61.26ZM161.725 69.14C161.645 69.14 161.571 69.1267 161.505 69.1C161.438 69.0733 161.405 69.04 161.405 69V61.26C161.405 60.86 161.365 60.5667 161.285 60.38C161.218 60.1933 161.078 60.0667 160.865 60C160.651 59.92 160.325 59.88 159.885 59.88C159.858 59.88 159.845 59.84 159.845 59.76C159.845 59.68 159.858 59.64 159.885 59.64L160.805 59.66C161.285 59.6867 161.678 59.7 161.985 59.7C162.318 59.7 162.725 59.6867 163.205 59.66L164.085 59.64C164.125 59.64 164.145 59.68 164.145 59.76C164.145 59.84 164.125 59.88 164.085 59.88C163.645 59.88 163.325 59.92 163.125 60C162.925 60.0667 162.785 60.1933 162.705 60.38C162.638 60.5667 162.605 60.86 162.605 61.26V67.9L162.205 68L168.905 59.54C168.945 59.5133 168.998 59.5 169.065 59.5C169.145 59.5 169.218 59.5133 169.285 59.54C169.365 59.5667 169.405 59.6 169.405 59.64V67.38C169.405 67.78 169.438 68.08 169.505 68.28C169.585 68.4667 169.725 68.5933 169.925 68.66C170.138 68.7267 170.471 68.76 170.925 68.76C170.951 68.76 170.965 68.8 170.965 68.88C170.965 68.96 170.951 69 170.925 69C170.538 69 170.231 68.9933 170.005 68.98L168.825 68.96L167.585 68.98C167.371 68.9933 167.078 69 166.705 69C166.665 69 166.645 68.96 166.645 68.88C166.645 68.8 166.665 68.76 166.705 68.76C167.145 68.76 167.465 68.7267 167.665 68.66C167.878 68.5933 168.018 68.4667 168.085 68.28C168.165 68.08 168.205 67.78 168.205 67.38V60.74L168.585 60.64L161.865 69.1C161.838 69.1267 161.791 69.14 161.725 69.14ZM171.612 69C171.586 69 171.572 68.96 171.572 68.88C171.572 68.8 171.586 68.76 171.612 68.76C172.159 68.76 172.599 68.5933 172.932 68.26C173.266 67.9133 173.592 67.4133 173.912 66.76C174.286 65.92 174.766 65.3267 175.352 64.98C175.952 64.62 176.706 64.44 177.612 64.44L177.752 64.52C176.379 64.52 175.399 64.3067 174.812 63.88C174.226 63.44 173.932 62.82 173.932 62.02C173.932 61.2733 174.232 60.68 174.832 60.24C175.432 59.8 176.239 59.58 177.252 59.58C177.519 59.58 177.799 59.6 178.092 59.64C178.212 59.6533 178.359 59.6667 178.532 59.68C178.719 59.6933 178.939 59.7 179.192 59.7C179.499 59.7 179.892 59.6867 180.372 59.66L181.292 59.64C181.319 59.64 181.332 59.68 181.332 59.76C181.332 59.84 181.319 59.88 181.292 59.88C180.852 59.88 180.526 59.92 180.312 60C180.099 60.0667 179.952 60.1933 179.872 60.38C179.806 60.5667 179.772 60.86 179.772 61.26V67.38C179.772 67.78 179.806 68.08 179.872 68.28C179.952 68.4667 180.092 68.5933 180.292 68.66C180.506 68.7267 180.839 68.76 181.292 68.76C181.319 68.76 181.332 68.8 181.332 68.88C181.332 68.96 181.319 69 181.292 69C180.906 69 180.599 68.9933 180.372 68.98L179.192 68.96L177.952 68.98C177.739 68.9933 177.446 69 177.072 69C177.046 69 177.032 68.96 177.032 68.88C177.032 68.8 177.046 68.76 177.072 68.76C177.526 68.76 177.852 68.7267 178.052 68.66C178.252 68.5933 178.386 68.4667 178.452 68.28C178.532 68.0933 178.572 67.7933 178.572 67.38V61.3C178.572 60.7533 178.466 60.3733 178.252 60.16C178.052 59.9467 177.712 59.84 177.232 59.84C175.819 59.84 175.112 60.42 175.112 61.58C175.112 62.38 175.332 63.0267 175.772 63.52C176.226 64 176.872 64.24 177.712 64.24C177.912 64.24 178.126 64.2267 178.352 64.2C178.592 64.1733 178.779 64.14 178.912 64.1L178.872 64.52C178.179 64.5067 177.619 64.5667 177.192 64.7C176.766 64.82 176.386 65.06 176.052 65.42C175.732 65.7667 175.406 66.2933 175.072 67C174.792 67.6 174.572 68.04 174.412 68.32C174.252 68.6 174.126 68.7867 174.032 68.88C173.952 68.96 173.859 69 173.752 69H171.612ZM36.1622 84.38C36.1622 84.8867 36.2755 85.2467 36.5022 85.46C36.7289 85.66 37.1755 85.76 37.8422 85.76C38.7889 85.76 39.4889 85.5733 39.9422 85.2C40.3955 84.8133 40.6222 84.2667 40.6222 83.56C40.6222 82.7733 40.3489 82.1733 39.8022 81.76C39.2689 81.3333 38.5089 81.12 37.5222 81.12C36.9489 81.12 36.3155 81.1933 35.6222 81.34L35.5222 81.06C36.6955 80.8467 37.6622 80.74 38.4222 80.74C39.5689 80.74 40.4422 80.9467 41.0422 81.36C41.6422 81.7733 41.9422 82.3733 41.9422 83.16C41.9422 84.0267 41.5955 84.7333 40.9022 85.28C40.2089 85.8133 39.3155 86.08 38.2222 86.08C37.8755 86.08 37.4689 86.06 37.0022 86.02C36.8155 86.0067 36.5955 85.9933 36.3422 85.98C36.0889 85.9667 35.8155 85.96 35.5222 85.96L34.3622 85.98C34.1355 85.9933 33.8289 86 33.4422 86C33.4155 86 33.4022 85.96 33.4022 85.88C33.4022 85.8 33.4155 85.76 33.4422 85.76C33.8955 85.76 34.2222 85.7267 34.4222 85.66C34.6355 85.5933 34.7755 85.4667 34.8422 85.28C34.9222 85.08 34.9622 84.78 34.9622 84.38V78.26C34.9622 77.86 34.9222 77.5667 34.8422 77.38C34.7755 77.1933 34.6355 77.0667 34.4222 77C34.2222 76.92 33.9022 76.88 33.4622 76.88C33.4355 76.88 33.4222 76.84 33.4222 76.76C33.4222 76.68 33.4355 76.64 33.4622 76.64H40.7622C40.8955 76.64 40.9622 76.6933 40.9622 76.8L40.9822 78.08C40.9955 78.3333 41.0022 78.6533 41.0022 79.04C41.0022 79.08 40.9622 79.1 40.8822 79.1C40.8155 79.1 40.7755 79.08 40.7622 79.04C40.7089 78.4133 40.4689 77.9 40.0422 77.5C39.6289 77.1 39.1155 76.9 38.5022 76.9H37.7422C37.2755 76.9 36.9355 76.94 36.7222 77.02C36.5089 77.0867 36.3622 77.2133 36.2822 77.4C36.2022 77.5867 36.1622 77.88 36.1622 78.28V84.38ZM46.0445 84.3C46.0445 84.7267 46.0912 85.04 46.1845 85.24C46.2779 85.4267 46.4579 85.56 46.7245 85.64C47.0045 85.72 47.4379 85.76 48.0245 85.76C48.0645 85.76 48.0845 85.8 48.0845 85.88C48.0845 85.96 48.0645 86 48.0245 86C47.5445 86 47.1779 85.9933 46.9245 85.98L45.4445 85.96L44.2645 85.98C44.0379 85.9933 43.7312 86 43.3445 86C43.3179 86 43.3045 85.96 43.3045 85.88C43.3045 85.8 43.3179 85.76 43.3445 85.76C43.7845 85.76 44.1045 85.7267 44.3045 85.66C44.5045 85.5933 44.6379 85.4667 44.7045 85.28C44.7845 85.08 44.8245 84.78 44.8245 84.38V78.26C44.8245 77.86 44.7845 77.5667 44.7045 77.38C44.6379 77.1933 44.4979 77.0667 44.2845 77C44.0845 76.92 43.7712 76.88 43.3445 76.88C43.3179 76.88 43.3045 76.84 43.3045 76.76C43.3045 76.68 43.3179 76.64 43.3445 76.64L44.2445 76.66C44.7512 76.6867 45.1445 76.7 45.4245 76.7C45.6512 76.7 45.8645 76.6933 46.0645 76.68C46.2779 76.6667 46.4579 76.6533 46.6045 76.64C47.0312 76.6 47.4179 76.58 47.7645 76.58C49.9645 76.58 51.0645 77.3933 51.0645 79.02C51.0645 79.66 50.8979 80.2 50.5645 80.64C50.2445 81.0667 49.8312 81.3867 49.3245 81.6C48.8312 81.8133 48.3179 81.92 47.7845 81.92C47.4245 81.92 47.1312 81.8933 46.9045 81.84C46.8645 81.84 46.8445 81.8067 46.8445 81.74C46.8445 81.6333 46.8845 81.58 46.9645 81.58C47.1645 81.62 47.3712 81.64 47.5845 81.64C48.1712 81.64 48.6645 81.4533 49.0645 81.08C49.4779 80.6933 49.6845 80.14 49.6845 79.42C49.6845 78.58 49.4645 77.9467 49.0245 77.52C48.5979 77.08 48.0179 76.86 47.2845 76.86C46.9379 76.86 46.6845 76.8867 46.5245 76.94C46.3645 76.9933 46.2445 77.12 46.1645 77.32C46.0845 77.52 46.0445 77.8467 46.0445 78.3V84.3ZM54.8425 81.04H58.4825L58.6225 81.4H54.5225L54.8425 81.04ZM62.1825 85.76C62.2358 85.76 62.2625 85.8 62.2625 85.88C62.2625 85.96 62.2358 86 62.1825 86C61.9425 86 61.5558 85.9867 61.0225 85.96C60.4892 85.9333 60.1025 85.92 59.8625 85.92C59.6492 85.92 59.3692 85.9333 59.0225 85.96C58.6758 85.9867 58.4092 86 58.2225 86C58.1692 86 58.1425 85.96 58.1425 85.88C58.1425 85.8 58.1692 85.76 58.2225 85.76C58.5825 85.76 58.8425 85.72 59.0025 85.64C59.1758 85.5467 59.2625 85.3933 59.2625 85.18C59.2625 84.9933 59.1758 84.7067 59.0025 84.32L55.9625 77.76L56.4825 77.32L53.9825 83.54C53.7692 84.0467 53.6625 84.4667 53.6625 84.8C53.6625 85.1467 53.7825 85.3933 54.0225 85.54C54.2625 85.6867 54.6292 85.76 55.1225 85.76C55.1892 85.76 55.2225 85.8 55.2225 85.88C55.2225 85.96 55.1892 86 55.1225 86C54.9225 86 54.6492 85.9867 54.3025 85.96C53.9292 85.9333 53.5825 85.92 53.2625 85.92C52.9292 85.92 52.5358 85.9333 52.0825 85.96C51.6825 85.9867 51.3625 86 51.1225 86C51.0558 86 51.0225 85.96 51.0225 85.88C51.0225 85.8 51.0558 85.76 51.1225 85.76C51.5358 85.76 51.8625 85.7067 52.1025 85.6C52.3425 85.48 52.5625 85.2533 52.7625 84.92C52.9758 84.5867 53.2292 84.0667 53.5225 83.36L56.4025 76.34C56.4292 76.2867 56.4692 76.26 56.5225 76.26C56.5758 76.26 56.6092 76.2867 56.6225 76.34L59.8425 83.26C60.1892 84.0067 60.4625 84.5467 60.6625 84.88C60.8758 85.2133 61.0892 85.4467 61.3025 85.58C61.5292 85.7 61.8225 85.76 62.1825 85.76ZM70.6144 86C70.5077 86 70.421 85.9867 70.3544 85.96C70.301 85.92 70.221 85.82 70.1144 85.66C70.0077 85.5 69.8744 85.28 69.7144 85C69.5544 84.7067 69.221 84.1533 68.7144 83.34C68.301 82.6467 68.001 82.1867 67.8144 81.96C67.641 81.72 67.4344 81.5467 67.1944 81.44C66.9677 81.32 66.6344 81.26 66.1944 81.26C66.0477 81.26 65.7477 81.2733 65.2944 81.3L65.2744 80.94L66.2144 80.88C66.7744 80.8533 67.1144 80.84 67.2344 80.84C67.661 80.84 67.9944 80.8933 68.2344 81C68.4877 81.1067 68.721 81.2933 68.9344 81.56C69.1477 81.8267 69.4544 82.2933 69.8544 82.96C70.3344 83.72 70.7277 84.2933 71.0344 84.68C71.3544 85.0667 71.6544 85.34 71.9344 85.5C72.2277 85.66 72.5744 85.7467 72.9744 85.76C73.001 85.76 73.0144 85.8 73.0144 85.88C73.0144 85.96 73.001 86 72.9744 86H70.6144ZM62.9344 86C62.9077 86 62.8944 85.96 62.8944 85.88C62.8944 85.8 62.9077 85.76 62.9344 85.76C63.3744 85.76 63.6944 85.7267 63.8944 85.66C64.1077 85.5933 64.2544 85.4667 64.3344 85.28C64.4144 85.08 64.4544 84.78 64.4544 84.38V78.26C64.4544 77.86 64.4144 77.5667 64.3344 77.38C64.2677 77.1933 64.1277 77.0667 63.9144 77C63.7144 76.92 63.3944 76.88 62.9544 76.88C62.9277 76.88 62.9144 76.84 62.9144 76.76C62.9144 76.68 62.9277 76.64 62.9544 76.64L63.8544 76.66C64.361 76.6867 64.7544 76.7 65.0344 76.7C65.3677 76.7 65.7877 76.6867 66.2944 76.66L67.1544 76.64C67.181 76.64 67.1944 76.68 67.1944 76.76C67.1944 76.84 67.181 76.88 67.1544 76.88C66.7277 76.88 66.4077 76.92 66.1944 77C65.981 77.08 65.8344 77.22 65.7544 77.42C65.6877 77.6067 65.6544 77.9 65.6544 78.3V84.38C65.6544 84.7933 65.6877 85.0933 65.7544 85.28C65.8344 85.4667 65.9744 85.5933 66.1744 85.66C66.3744 85.7267 66.701 85.76 67.1544 85.76C67.181 85.76 67.1944 85.8 67.1944 85.88C67.1944 85.96 67.181 86 67.1544 86C66.781 86 66.4877 85.9933 66.2744 85.98L65.0344 85.96L63.8544 85.98C63.6277 85.9933 63.321 86 62.9344 86ZM67.3144 81.12L68.8544 78.98C69.3877 78.1933 69.6544 77.6533 69.6544 77.36C69.6544 77.1867 69.5744 77.0667 69.4144 77C69.2677 76.92 69.0344 76.88 68.7144 76.88C68.6744 76.88 68.6544 76.84 68.6544 76.76C68.6544 76.68 68.6744 76.64 68.7144 76.64L69.4744 76.66C69.9544 76.6867 70.4144 76.7 70.8544 76.7C71.1877 76.7 71.5544 76.6867 71.9544 76.66L72.5544 76.64C72.5944 76.64 72.6144 76.68 72.6144 76.76C72.6144 76.84 72.5944 76.88 72.5544 76.88C71.941 76.88 71.3877 77.0533 70.8944 77.4C70.401 77.7333 69.8744 78.2733 69.3144 79.02L67.6144 81.26L67.3144 81.12ZM78.125 86.24C77.1917 86.24 76.3583 86.02 75.625 85.58C74.905 85.14 74.345 84.5467 73.945 83.8C73.545 83.0533 73.345 82.2467 73.345 81.38C73.345 80.34 73.6117 79.4467 74.145 78.7C74.6917 77.94 75.3783 77.3667 76.205 76.98C77.045 76.5933 77.8983 76.4 78.765 76.4C79.6983 76.4 80.5183 76.6333 81.225 77.1C81.945 77.5533 82.4917 78.1467 82.865 78.88C83.2517 79.6133 83.445 80.38 83.445 81.18C83.445 82.0733 83.205 82.9133 82.725 83.7C82.245 84.4733 81.5983 85.0933 80.785 85.56C79.9717 86.0133 79.085 86.24 78.125 86.24ZM78.645 85.82C79.685 85.82 80.5117 85.4533 81.125 84.72C81.7517 83.9867 82.065 82.9733 82.065 81.68C82.065 80.7867 81.905 79.9733 81.585 79.24C81.2783 78.5067 80.825 77.92 80.225 77.48C79.625 77.04 78.9117 76.82 78.085 76.82C77.0183 76.82 76.1917 77.18 75.605 77.9C75.0183 78.6067 74.725 79.6 74.725 80.88C74.725 81.8 74.8783 82.6333 75.185 83.38C75.505 84.1267 75.9583 84.72 76.545 85.16C77.145 85.6 77.845 85.82 78.645 85.82ZM90.388 76.4C90.8946 76.4 91.4346 76.4533 92.008 76.56C92.5946 76.6533 93.068 76.7933 93.428 76.98C93.5213 77.02 93.5813 77.06 93.608 77.1C93.6346 77.14 93.6546 77.2133 93.668 77.32L93.868 79.38C93.868 79.42 93.828 79.4467 93.748 79.46C93.6813 79.4733 93.6413 79.4533 93.628 79.4C93.388 78.48 92.948 77.8 92.308 77.36C91.6813 76.92 90.9013 76.7 89.968 76.7C89.2746 76.7 88.648 76.8867 88.088 77.26C87.528 77.6333 87.088 78.1467 86.768 78.8C86.4613 79.44 86.308 80.1667 86.308 80.98C86.308 81.8067 86.468 82.6067 86.788 83.38C87.108 84.14 87.5813 84.76 88.208 85.24C88.848 85.72 89.6146 85.96 90.508 85.96C91.3213 85.96 92.008 85.7333 92.568 85.28C93.1413 84.8267 93.5546 84.1333 93.808 83.2C93.808 83.16 93.8413 83.14 93.908 83.14C93.9346 83.14 93.9613 83.1533 93.988 83.18C94.028 83.1933 94.048 83.2067 94.048 83.22L93.788 85.34C93.7746 85.4467 93.7546 85.52 93.728 85.56C93.7013 85.6 93.628 85.6467 93.508 85.7C92.4813 86.06 91.4146 86.24 90.308 86.24C89.0413 86.24 88.0013 85.9867 87.188 85.48C86.3746 84.9733 85.788 84.34 85.428 83.58C85.068 82.82 84.888 82.0533 84.888 81.28C84.888 80.3733 85.128 79.5467 85.608 78.8C86.088 78.0533 86.748 77.4667 87.588 77.04C88.428 76.6133 89.3613 76.4 90.388 76.4ZM100.293 86.24C99.3596 86.24 98.5263 86.02 97.793 85.58C97.073 85.14 96.513 84.5467 96.113 83.8C95.713 83.0533 95.513 82.2467 95.513 81.38C95.513 80.34 95.7796 79.4467 96.313 78.7C96.8596 77.94 97.5463 77.3667 98.373 76.98C99.213 76.5933 100.066 76.4 100.933 76.4C101.866 76.4 102.686 76.6333 103.393 77.1C104.113 77.5533 104.66 78.1467 105.033 78.88C105.42 79.6133 105.613 80.38 105.613 81.18C105.613 82.0733 105.373 82.9133 104.893 83.7C104.413 84.4733 103.766 85.0933 102.953 85.56C102.14 86.0133 101.253 86.24 100.293 86.24ZM100.813 85.82C101.853 85.82 102.68 85.4533 103.293 84.72C103.92 83.9867 104.233 82.9733 104.233 81.68C104.233 80.7867 104.073 79.9733 103.753 79.24C103.446 78.5067 102.993 77.92 102.393 77.48C101.793 77.04 101.08 76.82 100.253 76.82C99.1863 76.82 98.3596 77.18 97.773 77.9C97.1863 78.6067 96.893 79.6 96.893 80.88C96.893 81.8 97.0463 82.6333 97.353 83.38C97.673 84.1267 98.1263 84.72 98.713 85.16C99.313 85.6 100.013 85.82 100.813 85.82ZM110.576 82.44C109.749 82.44 109.083 82.2267 108.576 81.8C108.083 81.36 107.836 80.74 107.836 79.94V78.26C107.836 77.7267 107.743 77.3667 107.556 77.18C107.383 76.98 107.116 76.88 106.756 76.88C106.716 76.88 106.696 76.84 106.696 76.76C106.696 76.68 106.716 76.64 106.756 76.64L107.456 76.66C107.883 76.6867 108.203 76.7 108.416 76.7C108.656 76.7 109.029 76.6867 109.536 76.66L110.396 76.64C110.423 76.64 110.436 76.68 110.436 76.76C110.436 76.84 110.423 76.88 110.396 76.88C109.903 76.88 109.543 76.98 109.316 77.18C109.103 77.38 108.996 77.7533 108.996 78.3V79.5C108.996 80.1933 109.203 80.74 109.616 81.14C110.029 81.54 110.576 81.74 111.256 81.74C111.816 81.74 112.349 81.6 112.856 81.32C113.376 81.04 113.829 80.6533 114.216 80.16L114.296 80.38C113.696 81.1133 113.089 81.64 112.476 81.96C111.876 82.28 111.243 82.44 110.576 82.44ZM112.356 86C112.316 86 112.296 85.96 112.296 85.88C112.296 85.8 112.316 85.76 112.356 85.76C112.796 85.76 113.116 85.7267 113.316 85.66C113.516 85.5933 113.649 85.4667 113.716 85.28C113.796 85.08 113.836 84.78 113.836 84.38V78.3C113.836 77.9 113.796 77.6067 113.716 77.42C113.649 77.22 113.516 77.08 113.316 77C113.116 76.92 112.796 76.88 112.356 76.88C112.316 76.88 112.296 76.84 112.296 76.76C112.296 76.68 112.316 76.64 112.356 76.64L113.216 76.66C113.723 76.6867 114.136 76.7 114.456 76.7C114.763 76.7 115.156 76.6867 115.636 76.66L116.556 76.64C116.583 76.64 116.596 76.68 116.596 76.76C116.596 76.84 116.583 76.88 116.556 76.88C116.116 76.88 115.789 76.92 115.576 77C115.376 77.0667 115.236 77.1933 115.156 77.38C115.089 77.5667 115.056 77.86 115.056 78.26V84.38C115.056 84.78 115.089 85.08 115.156 85.28C115.236 85.4667 115.376 85.5933 115.576 85.66C115.789 85.7267 116.116 85.76 116.556 85.76C116.583 85.76 116.596 85.8 116.596 85.88C116.596 85.96 116.583 86 116.556 86C116.169 86 115.863 85.9933 115.636 85.98L114.456 85.96L113.216 85.98C113.003 85.9933 112.716 86 112.356 86ZM117.895 86C117.869 86 117.855 85.96 117.855 85.88C117.855 85.8 117.869 85.76 117.895 85.76C118.335 85.76 118.655 85.7267 118.855 85.66C119.055 85.5933 119.189 85.4667 119.255 85.28C119.335 85.08 119.375 84.78 119.375 84.38V78.26C119.375 77.86 119.335 77.5667 119.255 77.38C119.189 77.1933 119.055 77.0667 118.855 77C118.655 76.92 118.335 76.88 117.895 76.88C117.869 76.88 117.855 76.84 117.855 76.76C117.855 76.68 117.869 76.64 117.895 76.64H124.855C124.989 76.64 125.055 76.6933 125.055 76.8L125.075 78.04C125.089 78.2933 125.095 78.6133 125.095 79C125.095 79.04 125.055 79.06 124.975 79.06C124.895 79.06 124.855 79.04 124.855 79C124.802 78.3867 124.575 77.8867 124.175 77.5C123.789 77.1 123.309 76.9 122.735 76.9H122.175C121.709 76.9 121.369 76.94 121.155 77.02C120.942 77.0867 120.795 77.2133 120.715 77.4C120.635 77.5867 120.595 77.88 120.595 78.28V84.3C120.595 84.6867 120.635 84.98 120.715 85.18C120.795 85.3667 120.942 85.5 121.155 85.58C121.382 85.6467 121.722 85.68 122.175 85.68H123.135C123.682 85.68 124.162 85.4667 124.575 85.04C125.002 84.6 125.289 84.0333 125.435 83.34C125.435 83.3 125.469 83.28 125.535 83.28C125.615 83.28 125.655 83.3 125.655 83.34C125.562 84.3 125.515 85.0867 125.515 85.7C125.515 85.8067 125.495 85.8867 125.455 85.94C125.415 85.98 125.335 86 125.215 86H117.895ZM124.055 81.7C124.002 81.7 123.709 81.66 123.175 81.58C122.655 81.4867 121.629 81.44 120.095 81.44V81.02C121.615 81.02 122.635 80.9867 123.155 80.92C123.689 80.8533 123.989 80.82 124.055 80.82C124.122 80.82 124.155 80.96 124.155 81.24C124.155 81.5467 124.122 81.7 124.055 81.7ZM129.473 76.9C128.966 76.9 128.566 76.9733 128.273 77.12C127.979 77.2533 127.746 77.4867 127.573 77.82C127.413 78.1533 127.286 78.6267 127.193 79.24C127.193 79.2667 127.153 79.28 127.073 79.28C127.006 79.28 126.973 79.2667 126.973 79.24C127.013 78.9333 127.059 78.44 127.113 77.76C127.166 77.08 127.193 76.56 127.193 76.2C127.193 76.1333 127.233 76.1 127.313 76.1C127.393 76.1 127.433 76.1333 127.433 76.2C127.433 76.3733 127.533 76.4867 127.733 76.54C127.933 76.58 128.179 76.6 128.473 76.6C129.646 76.6267 130.653 76.64 131.493 76.64L133.233 76.62C133.473 76.6067 133.786 76.6 134.173 76.6C134.653 76.6 135.006 76.5733 135.233 76.52C135.459 76.4533 135.606 76.32 135.673 76.12C135.699 76.08 135.746 76.06 135.813 76.06C135.879 76.06 135.913 76.08 135.913 76.12C135.833 77.56 135.793 78.6 135.793 79.24C135.793 79.2667 135.753 79.28 135.673 79.28C135.606 79.28 135.573 79.2667 135.573 79.24C135.559 78.64 135.486 78.1733 135.353 77.84C135.233 77.5067 135.026 77.2667 134.733 77.12C134.439 76.9733 134.033 76.9 133.513 76.9C132.939 76.9 132.553 76.9933 132.353 77.18C132.166 77.3533 132.073 77.7133 132.073 78.26V84.38C132.073 84.7933 132.113 85.0933 132.193 85.28C132.273 85.4667 132.426 85.5933 132.653 85.66C132.893 85.7267 133.273 85.76 133.793 85.76C133.833 85.76 133.853 85.8 133.853 85.88C133.853 85.96 133.833 86 133.793 86C133.379 86 133.059 85.9933 132.833 85.98L131.433 85.96L130.093 85.98C129.853 85.9933 129.519 86 129.093 86C129.066 86 129.053 85.96 129.053 85.88C129.053 85.8 129.066 85.76 129.093 85.76C129.599 85.76 129.973 85.7267 130.213 85.66C130.453 85.5933 130.613 85.4667 130.693 85.28C130.786 85.08 130.833 84.78 130.833 84.38V78.22C130.833 77.8333 130.799 77.5533 130.733 77.38C130.679 77.1933 130.559 77.0667 130.373 77C130.186 76.9333 129.886 76.9 129.473 76.9ZM139.471 81.04H143.111L143.251 81.4H139.151L139.471 81.04ZM146.811 85.76C146.865 85.76 146.891 85.8 146.891 85.88C146.891 85.96 146.865 86 146.811 86C146.571 86 146.185 85.9867 145.651 85.96C145.118 85.9333 144.731 85.92 144.491 85.92C144.278 85.92 143.998 85.9333 143.651 85.96C143.305 85.9867 143.038 86 142.851 86C142.798 86 142.771 85.96 142.771 85.88C142.771 85.8 142.798 85.76 142.851 85.76C143.211 85.76 143.471 85.72 143.631 85.64C143.805 85.5467 143.891 85.3933 143.891 85.18C143.891 84.9933 143.805 84.7067 143.631 84.32L140.591 77.76L141.111 77.32L138.611 83.54C138.398 84.0467 138.291 84.4667 138.291 84.8C138.291 85.1467 138.411 85.3933 138.651 85.54C138.891 85.6867 139.258 85.76 139.751 85.76C139.818 85.76 139.851 85.8 139.851 85.88C139.851 85.96 139.818 86 139.751 86C139.551 86 139.278 85.9867 138.931 85.96C138.558 85.9333 138.211 85.92 137.891 85.92C137.558 85.92 137.165 85.9333 136.711 85.96C136.311 85.9867 135.991 86 135.751 86C135.685 86 135.651 85.96 135.651 85.88C135.651 85.8 135.685 85.76 135.751 85.76C136.165 85.76 136.491 85.7067 136.731 85.6C136.971 85.48 137.191 85.2533 137.391 84.92C137.605 84.5867 137.858 84.0667 138.151 83.36L141.031 76.34C141.058 76.2867 141.098 76.26 141.151 76.26C141.205 76.26 141.238 76.2867 141.251 76.34L144.471 83.26C144.818 84.0067 145.091 84.5467 145.291 84.88C145.505 85.2133 145.718 85.4467 145.931 85.58C146.158 85.7 146.451 85.76 146.811 85.76ZM155.883 78.3C155.883 77.9 155.843 77.6067 155.763 77.42C155.697 77.22 155.557 77.08 155.343 77C155.143 76.92 154.83 76.88 154.403 76.88C154.363 76.88 154.343 76.84 154.343 76.76C154.343 76.68 154.363 76.64 154.403 76.64L155.283 76.66C155.763 76.6867 156.17 76.7 156.503 76.7C156.797 76.7 157.197 76.6867 157.703 76.66L158.603 76.64C158.643 76.64 158.663 76.68 158.663 76.76C158.663 76.84 158.643 76.88 158.603 76.88C158.163 76.88 157.837 76.92 157.623 77C157.423 77.0667 157.283 77.1933 157.203 77.38C157.123 77.5667 157.083 77.86 157.083 78.26V84.38C157.083 84.78 157.123 85.08 157.203 85.28C157.283 85.4667 157.423 85.5933 157.623 85.66C157.837 85.7267 158.163 85.76 158.603 85.76C158.643 85.76 158.663 85.8 158.663 85.88C158.663 85.96 158.643 86 158.603 86C158.23 86 157.93 85.9933 157.703 85.98L156.503 85.96L155.283 85.98C155.07 85.9933 154.777 86 154.403 86C154.363 86 154.343 85.96 154.343 85.88C154.343 85.8 154.363 85.76 154.403 85.76C154.843 85.76 155.163 85.7267 155.363 85.66C155.563 85.5933 155.697 85.4667 155.763 85.28C155.843 85.08 155.883 84.78 155.883 84.38V78.3ZM149.623 81.1H156.403V81.46H149.623V81.1ZM149.083 78.26C149.083 77.86 149.043 77.5667 148.963 77.38C148.897 77.1933 148.757 77.0667 148.543 77C148.343 76.92 148.023 76.88 147.583 76.88C147.557 76.88 147.543 76.84 147.543 76.76C147.543 76.68 147.557 76.64 147.583 76.64L148.483 76.66C148.99 76.6867 149.383 76.7 149.663 76.7C149.997 76.7 150.417 76.6867 150.923 76.66L151.783 76.64C151.81 76.64 151.823 76.68 151.823 76.76C151.823 76.84 151.81 76.88 151.783 76.88C151.357 76.88 151.037 76.92 150.823 77C150.61 77.08 150.463 77.22 150.383 77.42C150.317 77.6067 150.283 77.9 150.283 78.3V84.38C150.283 84.7933 150.317 85.0933 150.383 85.28C150.463 85.4667 150.603 85.5933 150.803 85.66C151.003 85.7267 151.33 85.76 151.783 85.76C151.81 85.76 151.823 85.8 151.823 85.88C151.823 85.96 151.81 86 151.783 86C151.41 86 151.117 85.9933 150.903 85.98L149.663 85.96L148.483 85.98C148.257 85.9933 147.95 86 147.563 86C147.537 86 147.523 85.96 147.523 85.88C147.523 85.8 147.537 85.76 147.563 85.76C148.003 85.76 148.323 85.7267 148.523 85.66C148.737 85.5933 148.883 85.4667 148.963 85.28C149.043 85.08 149.083 84.78 149.083 84.38V78.26ZM161.725 86.14C161.645 86.14 161.571 86.1267 161.505 86.1C161.438 86.0733 161.405 86.04 161.405 86V78.26C161.405 77.86 161.365 77.5667 161.285 77.38C161.218 77.1933 161.078 77.0667 160.865 77C160.651 76.92 160.325 76.88 159.885 76.88C159.858 76.88 159.845 76.84 159.845 76.76C159.845 76.68 159.858 76.64 159.885 76.64L160.805 76.66C161.285 76.6867 161.678 76.7 161.985 76.7C162.318 76.7 162.725 76.6867 163.205 76.66L164.085 76.64C164.125 76.64 164.145 76.68 164.145 76.76C164.145 76.84 164.125 76.88 164.085 76.88C163.645 76.88 163.325 76.92 163.125 77C162.925 77.0667 162.785 77.1933 162.705 77.38C162.638 77.5667 162.605 77.86 162.605 78.26V84.9L162.205 85L168.905 76.54C168.945 76.5133 168.998 76.5 169.065 76.5C169.145 76.5 169.218 76.5133 169.285 76.54C169.365 76.5667 169.405 76.6 169.405 76.64V84.38C169.405 84.78 169.438 85.08 169.505 85.28C169.585 85.4667 169.725 85.5933 169.925 85.66C170.138 85.7267 170.471 85.76 170.925 85.76C170.951 85.76 170.965 85.8 170.965 85.88C170.965 85.96 170.951 86 170.925 86C170.538 86 170.231 85.9933 170.005 85.98L168.825 85.96L167.585 85.98C167.371 85.9933 167.078 86 166.705 86C166.665 86 166.645 85.96 166.645 85.88C166.645 85.8 166.665 85.76 166.705 85.76C167.145 85.76 167.465 85.7267 167.665 85.66C167.878 85.5933 168.018 85.4667 168.085 85.28C168.165 85.08 168.205 84.78 168.205 84.38V77.74L168.585 77.64L161.865 86.1C161.838 86.1267 161.791 86.14 161.725 86.14ZM171.612 86C171.586 86 171.572 85.96 171.572 85.88C171.572 85.8 171.586 85.76 171.612 85.76C172.159 85.76 172.599 85.5933 172.932 85.26C173.266 84.9133 173.592 84.4133 173.912 83.76C174.286 82.92 174.766 82.3267 175.352 81.98C175.952 81.62 176.706 81.44 177.612 81.44L177.752 81.52C176.379 81.52 175.399 81.3067 174.812 80.88C174.226 80.44 173.932 79.82 173.932 79.02C173.932 78.2733 174.232 77.68 174.832 77.24C175.432 76.8 176.239 76.58 177.252 76.58C177.519 76.58 177.799 76.6 178.092 76.64C178.212 76.6533 178.359 76.6667 178.532 76.68C178.719 76.6933 178.939 76.7 179.192 76.7C179.499 76.7 179.892 76.6867 180.372 76.66L181.292 76.64C181.319 76.64 181.332 76.68 181.332 76.76C181.332 76.84 181.319 76.88 181.292 76.88C180.852 76.88 180.526 76.92 180.312 77C180.099 77.0667 179.952 77.1933 179.872 77.38C179.806 77.5667 179.772 77.86 179.772 78.26V84.38C179.772 84.78 179.806 85.08 179.872 85.28C179.952 85.4667 180.092 85.5933 180.292 85.66C180.506 85.7267 180.839 85.76 181.292 85.76C181.319 85.76 181.332 85.8 181.332 85.88C181.332 85.96 181.319 86 181.292 86C180.906 86 180.599 85.9933 180.372 85.98L179.192 85.96L177.952 85.98C177.739 85.9933 177.446 86 177.072 86C177.046 86 177.032 85.96 177.032 85.88C177.032 85.8 177.046 85.76 177.072 85.76C177.526 85.76 177.852 85.7267 178.052 85.66C178.252 85.5933 178.386 85.4667 178.452 85.28C178.532 85.0933 178.572 84.7933 178.572 84.38V78.3C178.572 77.7533 178.466 77.3733 178.252 77.16C178.052 76.9467 177.712 76.84 177.232 76.84C175.819 76.84 175.112 77.42 175.112 78.58C175.112 79.38 175.332 80.0267 175.772 80.52C176.226 81 176.872 81.24 177.712 81.24C177.912 81.24 178.126 81.2267 178.352 81.2C178.592 81.1733 178.779 81.14 178.912 81.1L178.872 81.52C178.179 81.5067 177.619 81.5667 177.192 81.7C176.766 81.82 176.386 82.06 176.052 82.42C175.732 82.7667 175.406 83.2933 175.072 84C174.792 84.6 174.572 85.04 174.412 85.32C174.252 85.6 174.126 85.7867 174.032 85.88C173.952 85.96 173.859 86 173.752 86H171.612Z" fill="#545454"/>
<path d="M108.988 47V46.0684C109.902 45.9629 110.664 45.8457 111.273 45.7168C111.883 45.5762 112.369 45.4355 112.732 45.2949C113.096 45.1543 113.354 45.0195 113.506 44.8906C113.658 44.75 113.734 44.6152 113.734 44.4863V30.4766C113.734 30.0078 113.717 29.6445 113.682 29.3867C113.646 29.1289 113.559 28.918 113.418 28.7539C113.348 28.6836 113.213 28.625 113.014 28.5781C112.814 28.5312 112.533 28.5137 112.17 28.5254C111.807 28.5371 111.35 28.5781 110.799 28.6484C110.248 28.7188 109.586 28.8359 108.812 29L108.443 28.1035C108.936 27.9629 109.516 27.7695 110.184 27.5234C110.863 27.2773 111.549 27.0137 112.24 26.7324C112.932 26.4395 113.588 26.1523 114.209 25.8711C114.83 25.5781 115.334 25.3262 115.721 25.1152L116.371 25.7305V44.4863C116.371 44.6035 116.436 44.7324 116.564 44.873C116.693 45.002 116.922 45.1367 117.25 45.2773C117.578 45.418 118.023 45.5586 118.586 45.6992C119.16 45.8398 119.887 45.9629 120.766 46.0684V47H108.988ZM137.412 40.3027C137.412 41.2871 137.254 42.2188 136.938 43.0977C136.621 43.9766 136.152 44.7441 135.531 45.4004C134.91 46.0566 134.143 46.5781 133.229 46.9648C132.314 47.3398 131.254 47.5273 130.047 47.5273C129.59 47.5273 129.121 47.4863 128.641 47.4043C128.16 47.3223 127.668 47.1816 127.164 46.9824C126.672 46.7715 126.168 46.502 125.652 46.1738C125.148 45.834 124.633 45.4121 124.105 44.9082L124.703 43.7305C125.23 44.1289 125.711 44.457 126.145 44.7148C126.59 44.9727 127.006 45.1836 127.393 45.3477C127.791 45.5 128.184 45.6113 128.57 45.6816C128.957 45.7402 129.373 45.7695 129.818 45.7695C130.533 45.7695 131.184 45.6582 131.77 45.4355C132.355 45.2012 132.859 44.873 133.281 44.4512C133.703 44.0293 134.025 43.5195 134.248 42.9219C134.482 42.3125 134.6 41.6328 134.6 40.8828C134.6 40.0039 134.459 39.2598 134.178 38.6504C133.908 38.0293 133.557 37.5254 133.123 37.1387C132.701 36.752 132.221 36.4766 131.682 36.3125C131.154 36.1367 130.633 36.0488 130.117 36.0488H129.748C129.678 36.0488 129.607 36.0547 129.537 36.0664C129.479 36.0781 129.402 36.0898 129.309 36.1016C129.227 36.1133 129.098 36.1367 128.922 36.1719L128.676 35.1172C129.754 34.8242 130.615 34.4844 131.26 34.0977C131.904 33.7109 132.396 33.3125 132.736 32.9023C133.088 32.4805 133.316 32.0645 133.422 31.6543C133.539 31.2324 133.598 30.8398 133.598 30.4766C133.598 30.0781 133.533 29.668 133.404 29.2461C133.287 28.8125 133.094 28.4199 132.824 28.0684C132.566 27.7168 132.238 27.4297 131.84 27.207C131.441 26.9844 130.961 26.873 130.398 26.873C129.93 26.873 129.508 26.9551 129.133 27.1191C128.77 27.2832 128.465 27.5059 128.219 27.7871C127.973 28.0684 127.797 28.3906 127.691 28.7539C127.598 29.1172 127.586 29.498 127.656 29.8965C127.258 30.0957 126.877 30.2539 126.514 30.3711C126.15 30.4766 125.717 30.5469 125.213 30.582L124.738 30.0371C124.738 29.5449 124.92 29.0234 125.283 28.4727C125.646 27.9102 126.133 27.3945 126.742 26.9258C127.352 26.457 128.055 26.0703 128.852 25.7656C129.66 25.4492 130.51 25.291 131.4 25.291C132.279 25.291 133.029 25.4316 133.65 25.7129C134.283 25.9941 134.805 26.3691 135.215 26.8379C135.625 27.2949 135.924 27.8164 136.111 28.4023C136.311 28.9766 136.41 29.5625 136.41 30.1602C136.41 30.6055 136.322 31.0449 136.146 31.4785C135.971 31.9121 135.719 32.3281 135.391 32.7266C135.074 33.125 134.682 33.4941 134.213 33.834C133.756 34.1738 133.24 34.4727 132.666 34.7305C133.334 34.8125 133.955 35.0176 134.529 35.3457C135.115 35.6621 135.619 36.0723 136.041 36.5762C136.463 37.0684 136.797 37.6367 137.043 38.2812C137.289 38.9141 137.412 39.5879 137.412 40.3027ZM146.307 44.8379C146.307 45.248 146.242 45.6289 146.113 45.9805C145.996 46.3203 145.826 46.6191 145.604 46.877C145.393 47.1348 145.135 47.334 144.83 47.4746C144.537 47.627 144.221 47.7031 143.881 47.7031C143.248 47.7031 142.797 47.5332 142.527 47.1934C142.258 46.8535 142.123 46.3672 142.123 45.7344C142.123 45.3359 142.188 44.9668 142.316 44.627C142.445 44.2754 142.621 43.9707 142.844 43.7129C143.066 43.4434 143.324 43.2324 143.617 43.0801C143.922 42.9277 144.238 42.8516 144.566 42.8516C145.152 42.8516 145.586 43.0273 145.867 43.3789C146.16 43.7188 146.307 44.2051 146.307 44.8379ZM146.307 32.0938C146.307 32.5039 146.242 32.8848 146.113 33.2363C145.996 33.5762 145.826 33.875 145.604 34.1328C145.393 34.3906 145.135 34.5957 144.83 34.748C144.537 34.8887 144.221 34.959 143.881 34.959C143.248 34.959 142.797 34.7891 142.527 34.4492C142.258 34.1094 142.123 33.623 142.123 32.9902C142.123 32.5918 142.188 32.2227 142.316 31.8828C142.445 31.5312 142.621 31.2266 142.844 30.9688C143.066 30.6992 143.324 30.4883 143.617 30.3359C143.922 30.1836 144.238 30.1074 144.566 30.1074C145.152 30.1074 145.586 30.2832 145.867 30.6348C146.16 30.9746 146.307 31.4609 146.307 32.0938ZM160.756 37.0684C160.756 35.4629 160.627 34.0508 160.369 32.832C160.123 31.6133 159.789 30.5996 159.367 29.791C158.945 28.9707 158.459 28.3555 157.908 27.9453C157.357 27.5234 156.783 27.3125 156.186 27.3125C155.588 27.3125 155.049 27.4766 154.568 27.8047C154.088 28.1211 153.678 28.6191 153.338 29.2988C153.01 29.9668 152.752 30.8281 152.564 31.8828C152.389 32.9375 152.301 34.1973 152.301 35.6621C152.301 37.2676 152.418 38.6855 152.652 39.916C152.887 41.1465 153.203 42.1777 153.602 43.0098C154.012 43.8301 154.492 44.4512 155.043 44.873C155.605 45.2949 156.215 45.5059 156.871 45.5059C157.48 45.5059 158.025 45.3477 158.506 45.0312C158.986 44.7031 159.391 44.1992 159.719 43.5195C160.059 42.8281 160.316 41.9551 160.492 40.9004C160.668 39.834 160.756 38.5566 160.756 37.0684ZM163.639 36.418C163.639 37.9297 163.457 39.3594 163.094 40.707C162.742 42.0547 162.238 43.2324 161.582 44.2402C160.938 45.248 160.152 46.0508 159.227 46.6484C158.312 47.2344 157.299 47.5273 156.186 47.5273C155.072 47.5273 154.094 47.2344 153.25 46.6484C152.406 46.0508 151.697 45.248 151.123 44.2402C150.561 43.2324 150.133 42.0547 149.84 40.707C149.559 39.3594 149.418 37.9297 149.418 36.418C149.418 34.9062 149.6 33.4766 149.963 32.1289C150.326 30.7812 150.83 29.6035 151.475 28.5957C152.131 27.5762 152.916 26.7734 153.83 26.1875C154.744 25.5898 155.758 25.291 156.871 25.291C157.984 25.291 158.963 25.584 159.807 26.1699C160.65 26.7559 161.354 27.5527 161.916 28.5605C162.49 29.5684 162.918 30.752 163.199 32.1113C163.492 33.459 163.639 34.8945 163.639 36.418ZM177.666 37.0684C177.666 35.4629 177.537 34.0508 177.279 32.832C177.033 31.6133 176.699 30.5996 176.277 29.791C175.855 28.9707 175.369 28.3555 174.818 27.9453C174.268 27.5234 173.693 27.3125 173.096 27.3125C172.498 27.3125 171.959 27.4766 171.479 27.8047C170.998 28.1211 170.588 28.6191 170.248 29.2988C169.92 29.9668 169.662 30.8281 169.475 31.8828C169.299 32.9375 169.211 34.1973 169.211 35.6621C169.211 37.2676 169.328 38.6855 169.562 39.916C169.797 41.1465 170.113 42.1777 170.512 43.0098C170.922 43.8301 171.402 44.4512 171.953 44.873C172.516 45.2949 173.125 45.5059 173.781 45.5059C174.391 45.5059 174.936 45.3477 175.416 45.0312C175.896 44.7031 176.301 44.1992 176.629 43.5195C176.969 42.8281 177.227 41.9551 177.402 40.9004C177.578 39.834 177.666 38.5566 177.666 37.0684ZM180.549 36.418C180.549 37.9297 180.367 39.3594 180.004 40.707C179.652 42.0547 179.148 43.2324 178.492 44.2402C177.848 45.248 177.062 46.0508 176.137 46.6484C175.223 47.2344 174.209 47.5273 173.096 47.5273C171.982 47.5273 171.004 47.2344 170.16 46.6484C169.316 46.0508 168.607 45.248 168.033 44.2402C167.471 43.2324 167.043 42.0547 166.75 40.707C166.469 39.3594 166.328 37.9297 166.328 36.418C166.328 34.9062 166.51 33.4766 166.873 32.1289C167.236 30.7812 167.74 29.6035 168.385 28.5957C169.041 27.5762 169.826 26.7734 170.74 26.1875C171.654 25.5898 172.668 25.291 173.781 25.291C174.895 25.291 175.873 25.584 176.717 26.1699C177.561 26.7559 178.264 27.5527 178.826 28.5605C179.4 29.5684 179.828 30.752 180.109 32.1113C180.402 33.459 180.549 34.8945 180.549 36.418Z" fill="#545454"/>
<path d="M251.22 144.4C251.727 144.4 252.267 144.453 252.84 144.56C253.427 144.653 253.9 144.793 254.26 144.98C254.353 145.02 254.413 145.06 254.44 145.1C254.467 145.14 254.487 145.213 254.5 145.32L254.7 147.38C254.7 147.42 254.66 147.447 254.58 147.46C254.513 147.473 254.473 147.453 254.46 147.4C254.22 146.48 253.78 145.8 253.14 145.36C252.513 144.92 251.733 144.7 250.8 144.7C250.107 144.7 249.48 144.887 248.92 145.26C248.36 145.633 247.92 146.147 247.6 146.8C247.293 147.44 247.14 148.167 247.14 148.98C247.14 149.807 247.3 150.607 247.62 151.38C247.94 152.14 248.413 152.76 249.04 153.24C249.68 153.72 250.447 153.96 251.34 153.96C252.153 153.96 252.84 153.733 253.4 153.28C253.973 152.827 254.387 152.133 254.64 151.2C254.64 151.16 254.673 151.14 254.74 151.14C254.767 151.14 254.793 151.153 254.82 151.18C254.86 151.193 254.88 151.207 254.88 151.22L254.62 153.34C254.607 153.447 254.587 153.52 254.56 153.56C254.533 153.6 254.46 153.647 254.34 153.7C253.313 154.06 252.247 154.24 251.14 154.24C249.873 154.24 248.833 153.987 248.02 153.48C247.207 152.973 246.62 152.34 246.26 151.58C245.9 150.82 245.72 150.053 245.72 149.28C245.72 148.373 245.96 147.547 246.44 146.8C246.92 146.053 247.58 145.467 248.42 145.04C249.26 144.613 250.193 144.4 251.22 144.4ZM259.182 152.38C259.182 152.887 259.295 153.247 259.522 153.46C259.748 153.66 260.195 153.76 260.862 153.76C261.808 153.76 262.508 153.573 262.962 153.2C263.415 152.813 263.642 152.267 263.642 151.56C263.642 150.773 263.368 150.173 262.822 149.76C262.288 149.333 261.528 149.12 260.542 149.12C259.968 149.12 259.335 149.193 258.642 149.34L258.542 149.06C259.715 148.847 260.682 148.74 261.442 148.74C262.588 148.74 263.462 148.947 264.062 149.36C264.662 149.773 264.962 150.373 264.962 151.16C264.962 152.027 264.615 152.733 263.922 153.28C263.228 153.813 262.335 154.08 261.242 154.08C260.895 154.08 260.488 154.06 260.022 154.02C259.835 154.007 259.615 153.993 259.362 153.98C259.108 153.967 258.835 153.96 258.542 153.96L257.382 153.98C257.155 153.993 256.848 154 256.462 154C256.435 154 256.422 153.96 256.422 153.88C256.422 153.8 256.435 153.76 256.462 153.76C256.915 153.76 257.242 153.727 257.442 153.66C257.655 153.593 257.795 153.467 257.862 153.28C257.942 153.08 257.982 152.78 257.982 152.38V146.26C257.982 145.86 257.942 145.567 257.862 145.38C257.795 145.193 257.655 145.067 257.442 145C257.242 144.92 256.922 144.88 256.482 144.88C256.455 144.88 256.442 144.84 256.442 144.76C256.442 144.68 256.455 144.64 256.482 144.64H263.782C263.915 144.64 263.982 144.693 263.982 144.8L264.002 146.08C264.015 146.333 264.022 146.653 264.022 147.04C264.022 147.08 263.982 147.1 263.902 147.1C263.835 147.1 263.795 147.08 263.782 147.04C263.728 146.413 263.488 145.9 263.062 145.5C262.648 145.1 262.135 144.9 261.522 144.9H260.762C260.295 144.9 259.955 144.94 259.742 145.02C259.528 145.087 259.382 145.213 259.302 145.4C259.222 145.587 259.182 145.88 259.182 146.28V152.38ZM271.164 154.24C270.231 154.24 269.397 154.02 268.664 153.58C267.944 153.14 267.384 152.547 266.984 151.8C266.584 151.053 266.384 150.247 266.384 149.38C266.384 148.34 266.651 147.447 267.184 146.7C267.731 145.94 268.417 145.367 269.244 144.98C270.084 144.593 270.937 144.4 271.804 144.4C272.737 144.4 273.557 144.633 274.264 145.1C274.984 145.553 275.531 146.147 275.904 146.88C276.291 147.613 276.484 148.38 276.484 149.18C276.484 150.073 276.244 150.913 275.764 151.7C275.284 152.473 274.637 153.093 273.824 153.56C273.011 154.013 272.124 154.24 271.164 154.24ZM271.684 153.82C272.724 153.82 273.551 153.453 274.164 152.72C274.791 151.987 275.104 150.973 275.104 149.68C275.104 148.787 274.944 147.973 274.624 147.24C274.317 146.507 273.864 145.92 273.264 145.48C272.664 145.04 271.951 144.82 271.124 144.82C270.057 144.82 269.231 145.18 268.644 145.9C268.057 146.607 267.764 147.6 267.764 148.88C267.764 149.8 267.917 150.633 268.224 151.38C268.544 152.127 268.997 152.72 269.584 153.16C270.184 153.6 270.884 153.82 271.684 153.82ZM280.607 152.3C280.607 152.727 280.654 153.04 280.747 153.24C280.84 153.427 281.02 153.56 281.287 153.64C281.567 153.72 282 153.76 282.587 153.76C282.627 153.76 282.647 153.8 282.647 153.88C282.647 153.96 282.627 154 282.587 154C282.107 154 281.74 153.993 281.487 153.98L280.007 153.96L278.827 153.98C278.6 153.993 278.294 154 277.907 154C277.88 154 277.867 153.96 277.867 153.88C277.867 153.8 277.88 153.76 277.907 153.76C278.347 153.76 278.667 153.727 278.867 153.66C279.067 153.593 279.2 153.467 279.267 153.28C279.347 153.08 279.387 152.78 279.387 152.38V146.26C279.387 145.86 279.347 145.567 279.267 145.38C279.2 145.193 279.06 145.067 278.847 145C278.647 144.92 278.334 144.88 277.907 144.88C277.88 144.88 277.867 144.84 277.867 144.76C277.867 144.68 277.88 144.64 277.907 144.64L278.807 144.66C279.314 144.687 279.707 144.7 279.987 144.7C280.214 144.7 280.427 144.693 280.627 144.68C280.84 144.667 281.02 144.653 281.167 144.64C281.594 144.6 281.98 144.58 282.327 144.58C284.527 144.58 285.627 145.393 285.627 147.02C285.627 147.66 285.46 148.2 285.127 148.64C284.807 149.067 284.394 149.387 283.887 149.6C283.394 149.813 282.88 149.92 282.347 149.92C281.987 149.92 281.694 149.893 281.467 149.84C281.427 149.84 281.407 149.807 281.407 149.74C281.407 149.633 281.447 149.58 281.527 149.58C281.727 149.62 281.934 149.64 282.147 149.64C282.734 149.64 283.227 149.453 283.627 149.08C284.04 148.693 284.247 148.14 284.247 147.42C284.247 146.58 284.027 145.947 283.587 145.52C283.16 145.08 282.58 144.86 281.847 144.86C281.5 144.86 281.247 144.887 281.087 144.94C280.927 144.993 280.807 145.12 280.727 145.32C280.647 145.52 280.607 145.847 280.607 146.3V152.3ZM291.833 154C291.806 154 291.793 153.96 291.793 153.88C291.793 153.8 291.806 153.76 291.833 153.76C292.273 153.76 292.593 153.727 292.793 153.66C292.993 153.593 293.126 153.467 293.193 153.28C293.273 153.08 293.313 152.78 293.313 152.38V146.26C293.313 145.86 293.273 145.567 293.193 145.38C293.126 145.193 292.993 145.067 292.793 145C292.593 144.92 292.273 144.88 291.833 144.88C291.806 144.88 291.793 144.84 291.793 144.76C291.793 144.68 291.806 144.64 291.833 144.64H299.033C299.166 144.64 299.233 144.693 299.233 144.8V146.36V147.14C299.233 147.18 299.193 147.2 299.113 147.2C299.033 147.2 298.993 147.18 298.993 147.14C298.939 146.487 298.719 145.973 298.333 145.6C297.946 145.213 297.459 145.02 296.873 145.02H296.113C295.646 145.02 295.306 145.053 295.093 145.12C294.879 145.187 294.733 145.307 294.653 145.48C294.573 145.653 294.533 145.92 294.533 146.28V152.3C294.533 152.727 294.579 153.04 294.673 153.24C294.766 153.427 294.946 153.56 295.213 153.64C295.493 153.72 295.926 153.76 296.513 153.76C296.553 153.76 296.573 153.8 296.573 153.88C296.573 153.96 296.553 154 296.513 154C296.033 154 295.666 153.993 295.413 153.98L293.913 153.96L292.833 153.98C292.606 153.993 292.273 154 291.833 154ZM305.227 154.24C304.293 154.24 303.46 154.02 302.727 153.58C302.007 153.14 301.447 152.547 301.047 151.8C300.647 151.053 300.447 150.247 300.447 149.38C300.447 148.34 300.713 147.447 301.247 146.7C301.793 145.94 302.48 145.367 303.307 144.98C304.147 144.593 305 144.4 305.867 144.4C306.8 144.4 307.62 144.633 308.327 145.1C309.047 145.553 309.593 146.147 309.967 146.88C310.353 147.613 310.547 148.38 310.547 149.18C310.547 150.073 310.307 150.913 309.827 151.7C309.347 152.473 308.7 153.093 307.887 153.56C307.073 154.013 306.187 154.24 305.227 154.24ZM305.747 153.82C306.787 153.82 307.613 153.453 308.227 152.72C308.853 151.987 309.167 150.973 309.167 149.68C309.167 148.787 309.007 147.973 308.687 147.24C308.38 146.507 307.927 145.92 307.327 145.48C306.727 145.04 306.013 144.82 305.187 144.82C304.12 144.82 303.293 145.18 302.707 145.9C302.12 146.607 301.827 147.6 301.827 148.88C301.827 149.8 301.98 150.633 302.287 151.38C302.607 152.127 303.06 152.72 303.647 153.16C304.247 153.6 304.947 153.82 305.747 153.82ZM317.49 144.4C317.996 144.4 318.536 144.453 319.11 144.56C319.696 144.653 320.17 144.793 320.53 144.98C320.623 145.02 320.683 145.06 320.71 145.1C320.736 145.14 320.756 145.213 320.77 145.32L320.97 147.38C320.97 147.42 320.93 147.447 320.85 147.46C320.783 147.473 320.743 147.453 320.73 147.4C320.49 146.48 320.05 145.8 319.41 145.36C318.783 144.92 318.003 144.7 317.07 144.7C316.376 144.7 315.75 144.887 315.19 145.26C314.63 145.633 314.19 146.147 313.87 146.8C313.563 147.44 313.41 148.167 313.41 148.98C313.41 149.807 313.57 150.607 313.89 151.38C314.21 152.14 314.683 152.76 315.31 153.24C315.95 153.72 316.716 153.96 317.61 153.96C318.423 153.96 319.11 153.733 319.67 153.28C320.243 152.827 320.656 152.133 320.91 151.2C320.91 151.16 320.943 151.14 321.01 151.14C321.036 151.14 321.063 151.153 321.09 151.18C321.13 151.193 321.15 151.207 321.15 151.22L320.89 153.34C320.876 153.447 320.856 153.52 320.83 153.56C320.803 153.6 320.73 153.647 320.61 153.7C319.583 154.06 318.516 154.24 317.41 154.24C316.143 154.24 315.103 153.987 314.29 153.48C313.476 152.973 312.89 152.34 312.53 151.58C312.17 150.82 311.99 150.053 311.99 149.28C311.99 148.373 312.23 147.547 312.71 146.8C313.19 146.053 313.85 145.467 314.69 145.04C315.53 144.613 316.463 144.4 317.49 144.4ZM325.031 144.9C324.525 144.9 324.125 144.973 323.831 145.12C323.538 145.253 323.305 145.487 323.131 145.82C322.971 146.153 322.845 146.627 322.751 147.24C322.751 147.267 322.711 147.28 322.631 147.28C322.565 147.28 322.531 147.267 322.531 147.24C322.571 146.933 322.618 146.44 322.671 145.76C322.725 145.08 322.751 144.56 322.751 144.2C322.751 144.133 322.791 144.1 322.871 144.1C322.951 144.1 322.991 144.133 322.991 144.2C322.991 144.373 323.091 144.487 323.291 144.54C323.491 144.58 323.738 144.6 324.031 144.6C325.205 144.627 326.211 144.64 327.051 144.64L328.791 144.62C329.031 144.607 329.345 144.6 329.731 144.6C330.211 144.6 330.565 144.573 330.791 144.52C331.018 144.453 331.165 144.32 331.231 144.12C331.258 144.08 331.305 144.06 331.371 144.06C331.438 144.06 331.471 144.08 331.471 144.12C331.391 145.56 331.351 146.6 331.351 147.24C331.351 147.267 331.311 147.28 331.231 147.28C331.165 147.28 331.131 147.267 331.131 147.24C331.118 146.64 331.045 146.173 330.911 145.84C330.791 145.507 330.585 145.267 330.291 145.12C329.998 144.973 329.591 144.9 329.071 144.9C328.498 144.9 328.111 144.993 327.911 145.18C327.725 145.353 327.631 145.713 327.631 146.26V152.38C327.631 152.793 327.671 153.093 327.751 153.28C327.831 153.467 327.985 153.593 328.211 153.66C328.451 153.727 328.831 153.76 329.351 153.76C329.391 153.76 329.411 153.8 329.411 153.88C329.411 153.96 329.391 154 329.351 154C328.938 154 328.618 153.993 328.391 153.98L326.991 153.96L325.651 153.98C325.411 153.993 325.078 154 324.651 154C324.625 154 324.611 153.96 324.611 153.88C324.611 153.8 324.625 153.76 324.651 153.76C325.158 153.76 325.531 153.727 325.771 153.66C326.011 153.593 326.171 153.467 326.251 153.28C326.345 153.08 326.391 152.78 326.391 152.38V146.22C326.391 145.833 326.358 145.553 326.291 145.38C326.238 145.193 326.118 145.067 325.931 145C325.745 144.933 325.445 144.9 325.031 144.9ZM332.653 154C332.626 154 332.613 153.96 332.613 153.88C332.613 153.8 332.626 153.76 332.653 153.76C333.093 153.76 333.413 153.727 333.613 153.66C333.813 153.593 333.946 153.467 334.013 153.28C334.093 153.08 334.133 152.78 334.133 152.38V146.26C334.133 145.86 334.093 145.567 334.013 145.38C333.946 145.193 333.813 145.067 333.613 145C333.413 144.92 333.093 144.88 332.653 144.88C332.626 144.88 332.613 144.84 332.613 144.76C332.613 144.68 332.626 144.64 332.653 144.64H339.613C339.746 144.64 339.813 144.693 339.813 144.8L339.833 146.04C339.846 146.293 339.853 146.613 339.853 147C339.853 147.04 339.813 147.06 339.733 147.06C339.653 147.06 339.613 147.04 339.613 147C339.56 146.387 339.333 145.887 338.933 145.5C338.546 145.1 338.066 144.9 337.493 144.9H336.933C336.466 144.9 336.126 144.94 335.913 145.02C335.7 145.087 335.553 145.213 335.473 145.4C335.393 145.587 335.353 145.88 335.353 146.28V152.3C335.353 152.687 335.393 152.98 335.473 153.18C335.553 153.367 335.7 153.5 335.913 153.58C336.14 153.647 336.48 153.68 336.933 153.68H337.893C338.44 153.68 338.92 153.467 339.333 153.04C339.76 152.6 340.046 152.033 340.193 151.34C340.193 151.3 340.226 151.28 340.293 151.28C340.373 151.28 340.413 151.3 340.413 151.34C340.32 152.3 340.273 153.087 340.273 153.7C340.273 153.807 340.253 153.887 340.213 153.94C340.173 153.98 340.093 154 339.973 154H332.653ZM338.813 149.7C338.76 149.7 338.466 149.66 337.933 149.58C337.413 149.487 336.386 149.44 334.853 149.44V149.02C336.373 149.02 337.393 148.987 337.913 148.92C338.446 148.853 338.746 148.82 338.813 148.82C338.88 148.82 338.913 148.96 338.913 149.24C338.913 149.547 338.88 149.7 338.813 149.7ZM343.65 154.14C343.57 154.14 343.497 154.127 343.43 154.1C343.364 154.073 343.33 154.04 343.33 154V146.26C343.33 145.86 343.29 145.567 343.21 145.38C343.144 145.193 343.004 145.067 342.79 145C342.577 144.92 342.25 144.88 341.81 144.88C341.784 144.88 341.77 144.84 341.77 144.76C341.77 144.68 341.784 144.64 341.81 144.64L342.73 144.66C343.21 144.687 343.604 144.7 343.91 144.7C344.244 144.7 344.65 144.687 345.13 144.66L346.01 144.64C346.05 144.64 346.07 144.68 346.07 144.76C346.07 144.84 346.05 144.88 346.01 144.88C345.57 144.88 345.25 144.92 345.05 145C344.85 145.067 344.71 145.193 344.63 145.38C344.564 145.567 344.53 145.86 344.53 146.26V152.9L344.13 153L350.83 144.54C350.87 144.513 350.924 144.5 350.99 144.5C351.07 144.5 351.144 144.513 351.21 144.54C351.29 144.567 351.33 144.6 351.33 144.64V152.38C351.33 152.78 351.364 153.08 351.43 153.28C351.51 153.467 351.65 153.593 351.85 153.66C352.064 153.727 352.397 153.76 352.85 153.76C352.877 153.76 352.89 153.8 352.89 153.88C352.89 153.96 352.877 154 352.85 154C352.464 154 352.157 153.993 351.93 153.98L350.75 153.96L349.51 153.98C349.297 153.993 349.004 154 348.63 154C348.59 154 348.57 153.96 348.57 153.88C348.57 153.8 348.59 153.76 348.63 153.76C349.07 153.76 349.39 153.727 349.59 153.66C349.804 153.593 349.944 153.467 350.01 153.28C350.09 153.08 350.13 152.78 350.13 152.38V145.74L350.51 145.64L343.79 154.1C343.764 154.127 343.717 154.14 343.65 154.14ZM347.47 142.8C347.87 142.8 348.15 142.693 348.31 142.48C348.484 142.267 348.617 141.973 348.71 141.6C348.79 141.28 348.877 141.04 348.97 140.88C349.077 140.72 349.25 140.64 349.49 140.64C349.877 140.64 350.07 140.84 350.07 141.24C350.07 141.56 349.944 141.86 349.69 142.14C349.45 142.42 349.13 142.647 348.73 142.82C348.33 142.98 347.917 143.06 347.49 143.06C347.037 143.06 346.61 142.973 346.21 142.8C345.81 142.627 345.49 142.4 345.25 142.12C345.01 141.827 344.89 141.527 344.89 141.22C344.89 140.833 345.077 140.64 345.45 140.64C345.704 140.64 345.877 140.72 345.97 140.88C346.077 141.027 346.177 141.267 346.27 141.6C346.35 141.987 346.464 142.287 346.61 142.5C346.757 142.7 347.044 142.8 347.47 142.8Z" fill="#545454"/>
<path d="M244.988 135V134.068C245.902 133.963 246.664 133.846 247.273 133.717C247.883 133.576 248.369 133.436 248.732 133.295C249.096 133.154 249.354 133.02 249.506 132.891C249.658 132.75 249.734 132.615 249.734 132.486V118.477C249.734 118.008 249.717 117.645 249.682 117.387C249.646 117.129 249.559 116.918 249.418 116.754C249.348 116.684 249.213 116.625 249.014 116.578C248.814 116.531 248.533 116.514 248.17 116.525C247.807 116.537 247.35 116.578 246.799 116.648C246.248 116.719 245.586 116.836 244.812 117L244.443 116.104C244.936 115.963 245.516 115.77 246.184 115.523C246.863 115.277 247.549 115.014 248.24 114.732C248.932 114.439 249.588 114.152 250.209 113.871C250.83 113.578 251.334 113.326 251.721 113.115L252.371 113.73V132.486C252.371 132.604 252.436 132.732 252.564 132.873C252.693 133.002 252.922 133.137 253.25 133.277C253.578 133.418 254.023 133.559 254.586 133.699C255.16 133.84 255.887 133.963 256.766 134.068V135H244.988ZM267.699 123.398C267.102 123.398 266.439 123.568 265.713 123.908C264.998 124.236 264.312 124.793 263.656 125.578C263.656 126.973 263.768 128.18 263.99 129.199C264.225 130.207 264.553 131.045 264.975 131.713C265.396 132.381 265.906 132.879 266.504 133.207C267.102 133.523 267.764 133.682 268.49 133.682C269.123 133.682 269.645 133.535 270.055 133.242C270.477 132.938 270.811 132.557 271.057 132.1C271.314 131.631 271.496 131.115 271.602 130.553C271.707 129.979 271.76 129.422 271.76 128.883C271.76 127.781 271.625 126.879 271.355 126.176C271.098 125.461 270.77 124.898 270.371 124.488C269.973 124.078 269.533 123.797 269.053 123.645C268.584 123.48 268.133 123.398 267.699 123.398ZM274.396 127.758C274.396 128.309 274.332 128.883 274.203 129.48C274.086 130.078 273.898 130.664 273.641 131.238C273.395 131.812 273.084 132.357 272.709 132.873C272.346 133.389 271.918 133.846 271.426 134.244C270.945 134.631 270.4 134.941 269.791 135.176C269.182 135.41 268.52 135.527 267.805 135.527C266.844 135.527 265.941 135.316 265.098 134.895C264.254 134.461 263.516 133.857 262.883 133.084C262.25 132.311 261.752 131.385 261.389 130.307C261.025 129.217 260.844 128.01 260.844 126.686C260.844 125.033 261.078 123.451 261.547 121.939C262.027 120.416 262.76 119.045 263.744 117.826C264.729 116.607 265.965 115.582 267.453 114.75C268.953 113.906 270.723 113.338 272.762 113.045L273.096 114.082C271.713 114.398 270.482 114.879 269.404 115.523C268.338 116.156 267.418 116.895 266.645 117.738C265.883 118.582 265.262 119.508 264.781 120.516C264.312 121.512 263.99 122.531 263.814 123.574C264.225 123.176 264.641 122.842 265.062 122.572C265.496 122.303 265.912 122.086 266.311 121.922C266.721 121.758 267.107 121.641 267.471 121.57C267.834 121.5 268.15 121.465 268.42 121.465C269.369 121.465 270.213 121.611 270.951 121.904C271.689 122.197 272.311 122.619 272.814 123.17C273.33 123.709 273.723 124.371 273.992 125.156C274.262 125.93 274.396 126.797 274.396 127.758ZM282.307 132.838C282.307 133.248 282.242 133.629 282.113 133.98C281.996 134.32 281.826 134.619 281.604 134.877C281.393 135.135 281.135 135.334 280.83 135.475C280.537 135.627 280.221 135.703 279.881 135.703C279.248 135.703 278.797 135.533 278.527 135.193C278.258 134.854 278.123 134.367 278.123 133.734C278.123 133.336 278.188 132.967 278.316 132.627C278.445 132.275 278.621 131.971 278.844 131.713C279.066 131.443 279.324 131.232 279.617 131.08C279.922 130.928 280.238 130.852 280.566 130.852C281.152 130.852 281.586 131.027 281.867 131.379C282.16 131.719 282.307 132.205 282.307 132.838ZM282.307 120.094C282.307 120.504 282.242 120.885 282.113 121.236C281.996 121.576 281.826 121.875 281.604 122.133C281.393 122.391 281.135 122.596 280.83 122.748C280.537 122.889 280.221 122.959 279.881 122.959C279.248 122.959 278.797 122.789 278.527 122.449C278.258 122.109 278.123 121.623 278.123 120.99C278.123 120.592 278.188 120.223 278.316 119.883C278.445 119.531 278.621 119.227 278.844 118.969C279.066 118.699 279.324 118.488 279.617 118.336C279.922 118.184 280.238 118.107 280.566 118.107C281.152 118.107 281.586 118.283 281.867 118.635C282.16 118.975 282.307 119.461 282.307 120.094ZM296.756 125.068C296.756 123.463 296.627 122.051 296.369 120.832C296.123 119.613 295.789 118.6 295.367 117.791C294.945 116.971 294.459 116.355 293.908 115.945C293.357 115.523 292.783 115.312 292.186 115.312C291.588 115.312 291.049 115.477 290.568 115.805C290.088 116.121 289.678 116.619 289.338 117.299C289.01 117.967 288.752 118.828 288.564 119.883C288.389 120.938 288.301 122.197 288.301 123.662C288.301 125.268 288.418 126.686 288.652 127.916C288.887 129.146 289.203 130.178 289.602 131.01C290.012 131.83 290.492 132.451 291.043 132.873C291.605 133.295 292.215 133.506 292.871 133.506C293.48 133.506 294.025 133.348 294.506 133.031C294.986 132.703 295.391 132.199 295.719 131.52C296.059 130.828 296.316 129.955 296.492 128.9C296.668 127.834 296.756 126.557 296.756 125.068ZM299.639 124.418C299.639 125.93 299.457 127.359 299.094 128.707C298.742 130.055 298.238 131.232 297.582 132.24C296.938 133.248 296.152 134.051 295.227 134.648C294.312 135.234 293.299 135.527 292.186 135.527C291.072 135.527 290.094 135.234 289.25 134.648C288.406 134.051 287.697 133.248 287.123 132.24C286.561 131.232 286.133 130.055 285.84 128.707C285.559 127.359 285.418 125.93 285.418 124.418C285.418 122.906 285.6 121.477 285.963 120.129C286.326 118.781 286.83 117.604 287.475 116.596C288.131 115.576 288.916 114.773 289.83 114.188C290.744 113.59 291.758 113.291 292.871 113.291C293.984 113.291 294.963 113.584 295.807 114.17C296.65 114.756 297.354 115.553 297.916 116.561C298.49 117.568 298.918 118.752 299.199 120.111C299.492 121.459 299.639 122.895 299.639 124.418ZM313.666 125.068C313.666 123.463 313.537 122.051 313.279 120.832C313.033 119.613 312.699 118.6 312.277 117.791C311.855 116.971 311.369 116.355 310.818 115.945C310.268 115.523 309.693 115.312 309.096 115.312C308.498 115.312 307.959 115.477 307.479 115.805C306.998 116.121 306.588 116.619 306.248 117.299C305.92 117.967 305.662 118.828 305.475 119.883C305.299 120.938 305.211 122.197 305.211 123.662C305.211 125.268 305.328 126.686 305.562 127.916C305.797 129.146 306.113 130.178 306.512 131.01C306.922 131.83 307.402 132.451 307.953 132.873C308.516 133.295 309.125 133.506 309.781 133.506C310.391 133.506 310.936 133.348 311.416 133.031C311.896 132.703 312.301 132.199 312.629 131.52C312.969 130.828 313.227 129.955 313.402 128.9C313.578 127.834 313.666 126.557 313.666 125.068ZM316.549 124.418C316.549 125.93 316.367 127.359 316.004 128.707C315.652 130.055 315.148 131.232 314.492 132.24C313.848 133.248 313.062 134.051 312.137 134.648C311.223 135.234 310.209 135.527 309.096 135.527C307.982 135.527 307.004 135.234 306.16 134.648C305.316 134.051 304.607 133.248 304.033 132.24C303.471 131.232 303.043 130.055 302.75 128.707C302.469 127.359 302.328 125.93 302.328 124.418C302.328 122.906 302.51 121.477 302.873 120.129C303.236 118.781 303.74 117.604 304.385 116.596C305.041 115.576 305.826 114.773 306.74 114.188C307.654 113.59 308.668 113.291 309.781 113.291C310.895 113.291 311.873 113.584 312.717 114.17C313.561 114.756 314.264 115.553 314.826 116.561C315.4 117.568 315.828 118.752 316.109 120.111C316.402 121.459 316.549 122.895 316.549 124.418Z" fill="#545454"/>
<path d="M120.846 242.38C120.846 242.887 120.959 243.247 121.186 243.46C121.412 243.66 121.859 243.76 122.526 243.76C123.472 243.76 124.172 243.573 124.626 243.2C125.079 242.813 125.306 242.267 125.306 241.56C125.306 240.773 125.032 240.173 124.486 239.76C123.952 239.333 123.192 239.12 122.206 239.12C121.632 239.12 120.999 239.193 120.306 239.34L120.206 239.06C121.379 238.847 122.346 238.74 123.106 238.74C124.252 238.74 125.126 238.947 125.726 239.36C126.326 239.773 126.626 240.373 126.626 241.16C126.626 242.027 126.279 242.733 125.586 243.28C124.892 243.813 123.999 244.08 122.906 244.08C122.559 244.08 122.152 244.06 121.686 244.02C121.499 244.007 121.279 243.993 121.026 243.98C120.772 243.967 120.499 243.96 120.206 243.96L119.046 243.98C118.819 243.993 118.512 244 118.126 244C118.099 244 118.086 243.96 118.086 243.88C118.086 243.8 118.099 243.76 118.126 243.76C118.579 243.76 118.906 243.727 119.106 243.66C119.319 243.593 119.459 243.467 119.526 243.28C119.606 243.08 119.646 242.78 119.646 242.38V236.26C119.646 235.86 119.606 235.567 119.526 235.38C119.459 235.193 119.319 235.067 119.106 235C118.906 234.92 118.586 234.88 118.146 234.88C118.119 234.88 118.106 234.84 118.106 234.76C118.106 234.68 118.119 234.64 118.146 234.64H125.446C125.579 234.64 125.646 234.693 125.646 234.8L125.666 236.08C125.679 236.333 125.686 236.653 125.686 237.04C125.686 237.08 125.646 237.1 125.566 237.1C125.499 237.1 125.459 237.08 125.446 237.04C125.392 236.413 125.152 235.9 124.726 235.5C124.312 235.1 123.799 234.9 123.186 234.9H122.426C121.959 234.9 121.619 234.94 121.406 235.02C121.192 235.087 121.046 235.213 120.966 235.4C120.886 235.587 120.846 235.88 120.846 236.28V242.38ZM131.108 239.04H134.748L134.888 239.4H130.788L131.108 239.04ZM138.448 243.76C138.501 243.76 138.528 243.8 138.528 243.88C138.528 243.96 138.501 244 138.448 244C138.208 244 137.821 243.987 137.288 243.96C136.755 243.933 136.368 243.92 136.128 243.92C135.915 243.92 135.635 243.933 135.288 243.96C134.941 243.987 134.675 244 134.488 244C134.435 244 134.408 243.96 134.408 243.88C134.408 243.8 134.435 243.76 134.488 243.76C134.848 243.76 135.108 243.72 135.268 243.64C135.441 243.547 135.528 243.393 135.528 243.18C135.528 242.993 135.441 242.707 135.268 242.32L132.228 235.76L132.748 235.32L130.248 241.54C130.035 242.047 129.928 242.467 129.928 242.8C129.928 243.147 130.048 243.393 130.288 243.54C130.528 243.687 130.895 243.76 131.388 243.76C131.455 243.76 131.488 243.8 131.488 243.88C131.488 243.96 131.455 244 131.388 244C131.188 244 130.915 243.987 130.568 243.96C130.195 243.933 129.848 243.92 129.528 243.92C129.195 243.92 128.801 243.933 128.348 243.96C127.948 243.987 127.628 244 127.388 244C127.321 244 127.288 243.96 127.288 243.88C127.288 243.8 127.321 243.76 127.388 243.76C127.801 243.76 128.128 243.707 128.368 243.6C128.608 243.48 128.828 243.253 129.028 242.92C129.241 242.587 129.495 242.067 129.788 241.36L132.668 234.34C132.695 234.287 132.735 234.26 132.788 234.26C132.841 234.26 132.875 234.287 132.888 234.34L136.108 241.26C136.455 242.007 136.728 242.547 136.928 242.88C137.141 243.213 137.355 243.447 137.568 243.58C137.795 243.7 138.088 243.76 138.448 243.76ZM147.52 236.3C147.52 235.9 147.48 235.607 147.4 235.42C147.333 235.22 147.193 235.08 146.98 235C146.78 234.92 146.467 234.88 146.04 234.88C146 234.88 145.98 234.84 145.98 234.76C145.98 234.68 146 234.64 146.04 234.64L146.92 234.66C147.4 234.687 147.807 234.7 148.14 234.7C148.433 234.7 148.833 234.687 149.34 234.66L150.24 234.64C150.28 234.64 150.3 234.68 150.3 234.76C150.3 234.84 150.28 234.88 150.24 234.88C149.8 234.88 149.473 234.92 149.26 235C149.06 235.067 148.92 235.193 148.84 235.38C148.76 235.567 148.72 235.86 148.72 236.26V242.38C148.72 242.78 148.76 243.08 148.84 243.28C148.92 243.467 149.06 243.593 149.26 243.66C149.473 243.727 149.8 243.76 150.24 243.76C150.28 243.76 150.3 243.8 150.3 243.88C150.3 243.96 150.28 244 150.24 244C149.867 244 149.567 243.993 149.34 243.98L148.14 243.96L146.92 243.98C146.707 243.993 146.413 244 146.04 244C146 244 145.98 243.96 145.98 243.88C145.98 243.8 146 243.76 146.04 243.76C146.48 243.76 146.8 243.727 147 243.66C147.2 243.593 147.333 243.467 147.4 243.28C147.48 243.08 147.52 242.78 147.52 242.38V236.3ZM141.26 239.1H148.04V239.46H141.26V239.1ZM140.72 236.26C140.72 235.86 140.68 235.567 140.6 235.38C140.533 235.193 140.393 235.067 140.18 235C139.98 234.92 139.66 234.88 139.22 234.88C139.193 234.88 139.18 234.84 139.18 234.76C139.18 234.68 139.193 234.64 139.22 234.64L140.12 234.66C140.627 234.687 141.02 234.7 141.3 234.7C141.633 234.7 142.053 234.687 142.56 234.66L143.42 234.64C143.447 234.64 143.46 234.68 143.46 234.76C143.46 234.84 143.447 234.88 143.42 234.88C142.993 234.88 142.673 234.92 142.46 235C142.247 235.08 142.1 235.22 142.02 235.42C141.953 235.607 141.92 235.9 141.92 236.3V242.38C141.92 242.793 141.953 243.093 142.02 243.28C142.1 243.467 142.24 243.593 142.44 243.66C142.64 243.727 142.967 243.76 143.42 243.76C143.447 243.76 143.46 243.8 143.46 243.88C143.46 243.96 143.447 244 143.42 244C143.047 244 142.753 243.993 142.54 243.98L141.3 243.96L140.12 243.98C139.893 243.993 139.587 244 139.2 244C139.173 244 139.16 243.96 139.16 243.88C139.16 243.8 139.173 243.76 139.2 243.76C139.64 243.76 139.96 243.727 140.16 243.66C140.373 243.593 140.52 243.467 140.6 243.28C140.68 243.08 140.72 242.78 140.72 242.38V236.26ZM159.321 244C159.215 244 159.128 243.987 159.061 243.96C159.008 243.92 158.928 243.82 158.821 243.66C158.715 243.5 158.581 243.28 158.421 243C158.261 242.707 157.928 242.153 157.421 241.34C157.008 240.647 156.708 240.187 156.521 239.96C156.348 239.72 156.141 239.547 155.901 239.44C155.675 239.32 155.341 239.26 154.901 239.26C154.755 239.26 154.455 239.273 154.001 239.3L153.981 238.94L154.921 238.88C155.481 238.853 155.821 238.84 155.941 238.84C156.368 238.84 156.701 238.893 156.941 239C157.195 239.107 157.428 239.293 157.641 239.56C157.855 239.827 158.161 240.293 158.561 240.96C159.041 241.72 159.435 242.293 159.741 242.68C160.061 243.067 160.361 243.34 160.641 243.5C160.935 243.66 161.281 243.747 161.681 243.76C161.708 243.76 161.721 243.8 161.721 243.88C161.721 243.96 161.708 244 161.681 244H159.321ZM151.641 244C151.615 244 151.601 243.96 151.601 243.88C151.601 243.8 151.615 243.76 151.641 243.76C152.081 243.76 152.401 243.727 152.601 243.66C152.815 243.593 152.961 243.467 153.041 243.28C153.121 243.08 153.161 242.78 153.161 242.38V236.26C153.161 235.86 153.121 235.567 153.041 235.38C152.975 235.193 152.835 235.067 152.621 235C152.421 234.92 152.101 234.88 151.661 234.88C151.635 234.88 151.621 234.84 151.621 234.76C151.621 234.68 151.635 234.64 151.661 234.64L152.561 234.66C153.068 234.687 153.461 234.7 153.741 234.7C154.075 234.7 154.495 234.687 155.001 234.66L155.861 234.64C155.888 234.64 155.901 234.68 155.901 234.76C155.901 234.84 155.888 234.88 155.861 234.88C155.435 234.88 155.115 234.92 154.901 235C154.688 235.08 154.541 235.22 154.461 235.42C154.395 235.607 154.361 235.9 154.361 236.3V242.38C154.361 242.793 154.395 243.093 154.461 243.28C154.541 243.467 154.681 243.593 154.881 243.66C155.081 243.727 155.408 243.76 155.861 243.76C155.888 243.76 155.901 243.8 155.901 243.88C155.901 243.96 155.888 244 155.861 244C155.488 244 155.195 243.993 154.981 243.98L153.741 243.96L152.561 243.98C152.335 243.993 152.028 244 151.641 244ZM156.021 239.12L157.561 236.98C158.095 236.193 158.361 235.653 158.361 235.36C158.361 235.187 158.281 235.067 158.121 235C157.975 234.92 157.741 234.88 157.421 234.88C157.381 234.88 157.361 234.84 157.361 234.76C157.361 234.68 157.381 234.64 157.421 234.64L158.181 234.66C158.661 234.687 159.121 234.7 159.561 234.7C159.895 234.7 160.261 234.687 160.661 234.66L161.261 234.64C161.301 234.64 161.321 234.68 161.321 234.76C161.321 234.84 161.301 234.88 161.261 234.88C160.648 234.88 160.095 235.053 159.601 235.4C159.108 235.733 158.581 236.273 158.021 237.02L156.321 239.26L156.021 239.12ZM162.501 244C162.474 244 162.461 243.96 162.461 243.88C162.461 243.8 162.474 243.76 162.501 243.76C162.941 243.76 163.261 243.727 163.461 243.66C163.661 243.593 163.794 243.467 163.861 243.28C163.941 243.08 163.981 242.78 163.981 242.38V236.26C163.981 235.86 163.941 235.567 163.861 235.38C163.794 235.193 163.661 235.067 163.461 235C163.261 234.92 162.941 234.88 162.501 234.88C162.474 234.88 162.461 234.84 162.461 234.76C162.461 234.68 162.474 234.64 162.501 234.64H169.461C169.594 234.64 169.661 234.693 169.661 234.8L169.681 236.04C169.694 236.293 169.701 236.613 169.701 237C169.701 237.04 169.661 237.06 169.581 237.06C169.501 237.06 169.461 237.04 169.461 237C169.407 236.387 169.181 235.887 168.781 235.5C168.394 235.1 167.914 234.9 167.341 234.9H166.781C166.314 234.9 165.974 234.94 165.761 235.02C165.547 235.087 165.401 235.213 165.321 235.4C165.241 235.587 165.201 235.88 165.201 236.28V242.3C165.201 242.687 165.241 242.98 165.321 243.18C165.401 243.367 165.547 243.5 165.761 243.58C165.987 243.647 166.327 243.68 166.781 243.68H167.741C168.287 243.68 168.767 243.467 169.181 243.04C169.607 242.6 169.894 242.033 170.041 241.34C170.041 241.3 170.074 241.28 170.141 241.28C170.221 241.28 170.261 241.3 170.261 241.34C170.167 242.3 170.121 243.087 170.121 243.7C170.121 243.807 170.101 243.887 170.061 243.94C170.021 243.98 169.941 244 169.821 244H162.501ZM168.661 239.7C168.607 239.7 168.314 239.66 167.781 239.58C167.261 239.487 166.234 239.44 164.701 239.44V239.02C166.221 239.02 167.241 238.987 167.761 238.92C168.294 238.853 168.594 238.82 168.661 238.82C168.727 238.82 168.761 238.96 168.761 239.24C168.761 239.547 168.727 239.7 168.661 239.7ZM174.078 234.9C173.571 234.9 173.171 234.973 172.878 235.12C172.585 235.253 172.351 235.487 172.178 235.82C172.018 236.153 171.891 236.627 171.798 237.24C171.798 237.267 171.758 237.28 171.678 237.28C171.611 237.28 171.578 237.267 171.578 237.24C171.618 236.933 171.665 236.44 171.718 235.76C171.771 235.08 171.798 234.56 171.798 234.2C171.798 234.133 171.838 234.1 171.918 234.1C171.998 234.1 172.038 234.133 172.038 234.2C172.038 234.373 172.138 234.487 172.338 234.54C172.538 234.58 172.785 234.6 173.078 234.6C174.251 234.627 175.258 234.64 176.098 234.64L177.838 234.62C178.078 234.607 178.391 234.6 178.778 234.6C179.258 234.6 179.611 234.573 179.838 234.52C180.065 234.453 180.211 234.32 180.278 234.12C180.305 234.08 180.351 234.06 180.418 234.06C180.485 234.06 180.518 234.08 180.518 234.12C180.438 235.56 180.398 236.6 180.398 237.24C180.398 237.267 180.358 237.28 180.278 237.28C180.211 237.28 180.178 237.267 180.178 237.24C180.165 236.64 180.091 236.173 179.958 235.84C179.838 235.507 179.631 235.267 179.338 235.12C179.045 234.973 178.638 234.9 178.118 234.9C177.545 234.9 177.158 234.993 176.958 235.18C176.771 235.353 176.678 235.713 176.678 236.26V242.38C176.678 242.793 176.718 243.093 176.798 243.28C176.878 243.467 177.031 243.593 177.258 243.66C177.498 243.727 177.878 243.76 178.398 243.76C178.438 243.76 178.458 243.8 178.458 243.88C178.458 243.96 178.438 244 178.398 244C177.985 244 177.665 243.993 177.438 243.98L176.038 243.96L174.698 243.98C174.458 243.993 174.125 244 173.698 244C173.671 244 173.658 243.96 173.658 243.88C173.658 243.8 173.671 243.76 173.698 243.76C174.205 243.76 174.578 243.727 174.818 243.66C175.058 243.593 175.218 243.467 175.298 243.28C175.391 243.08 175.438 242.78 175.438 242.38V236.22C175.438 235.833 175.405 235.553 175.338 235.38C175.285 235.193 175.165 235.067 174.978 235C174.791 234.933 174.491 234.9 174.078 234.9Z" fill="#545454"/>
<path d="M108.988 226V225.068C109.902 224.963 110.664 224.846 111.273 224.717C111.883 224.576 112.369 224.436 112.732 224.295C113.096 224.154 113.354 224.02 113.506 223.891C113.658 223.75 113.734 223.615 113.734 223.486V209.477C113.734 209.008 113.717 208.645 113.682 208.387C113.646 208.129 113.559 207.918 113.418 207.754C113.348 207.684 113.213 207.625 113.014 207.578C112.814 207.531 112.533 207.514 112.17 207.525C111.807 207.537 111.35 207.578 110.799 207.648C110.248 207.719 109.586 207.836 108.812 208L108.443 207.104C108.936 206.963 109.516 206.77 110.184 206.523C110.863 206.277 111.549 206.014 112.24 205.732C112.932 205.439 113.588 205.152 114.209 204.871C114.83 204.578 115.334 204.326 115.721 204.115L116.371 204.73V223.486C116.371 223.604 116.436 223.732 116.564 223.873C116.693 224.002 116.922 224.137 117.25 224.277C117.578 224.418 118.023 224.559 118.586 224.699C119.16 224.84 119.887 224.963 120.766 225.068V226H108.988ZM138.467 205.486C137.928 206.752 137.383 208.029 136.832 209.318C136.281 210.607 135.742 211.879 135.215 213.133C134.699 214.387 134.201 215.605 133.721 216.789C133.24 217.973 132.795 219.086 132.385 220.129C131.986 221.172 131.623 222.127 131.295 222.994C130.967 223.861 130.703 224.605 130.504 225.227C130.094 225.52 129.66 225.771 129.203 225.982C128.758 226.193 128.242 226.375 127.656 226.527L126.936 225.947C127.955 224.154 128.869 222.443 129.678 220.814C130.486 219.186 131.236 217.609 131.928 216.086C132.619 214.551 133.275 213.045 133.896 211.568C134.518 210.092 135.15 208.604 135.795 207.104H127.814C127.639 207.104 127.469 207.109 127.305 207.121C127.141 207.133 126.971 207.215 126.795 207.367C126.619 207.508 126.426 207.754 126.215 208.105C126.016 208.457 125.793 208.973 125.547 209.652L124.738 209.336C124.773 209.066 124.82 208.727 124.879 208.316C124.938 207.906 125.002 207.49 125.072 207.068C125.143 206.635 125.213 206.219 125.283 205.82C125.354 205.41 125.424 205.076 125.494 204.818H137.887L138.467 205.486ZM146.307 223.838C146.307 224.248 146.242 224.629 146.113 224.98C145.996 225.32 145.826 225.619 145.604 225.877C145.393 226.135 145.135 226.334 144.83 226.475C144.537 226.627 144.221 226.703 143.881 226.703C143.248 226.703 142.797 226.533 142.527 226.193C142.258 225.854 142.123 225.367 142.123 224.734C142.123 224.336 142.188 223.967 142.316 223.627C142.445 223.275 142.621 222.971 142.844 222.713C143.066 222.443 143.324 222.232 143.617 222.08C143.922 221.928 144.238 221.852 144.566 221.852C145.152 221.852 145.586 222.027 145.867 222.379C146.16 222.719 146.307 223.205 146.307 223.838ZM146.307 211.094C146.307 211.504 146.242 211.885 146.113 212.236C145.996 212.576 145.826 212.875 145.604 213.133C145.393 213.391 145.135 213.596 144.83 213.748C144.537 213.889 144.221 213.959 143.881 213.959C143.248 213.959 142.797 213.789 142.527 213.449C142.258 213.109 142.123 212.623 142.123 211.99C142.123 211.592 142.188 211.223 142.316 210.883C142.445 210.531 142.621 210.227 142.844 209.969C143.066 209.699 143.324 209.488 143.617 209.336C143.922 209.184 144.238 209.107 144.566 209.107C145.152 209.107 145.586 209.283 145.867 209.635C146.16 209.975 146.307 210.461 146.307 211.094ZM160.756 216.068C160.756 214.463 160.627 213.051 160.369 211.832C160.123 210.613 159.789 209.6 159.367 208.791C158.945 207.971 158.459 207.355 157.908 206.945C157.357 206.523 156.783 206.312 156.186 206.312C155.588 206.312 155.049 206.477 154.568 206.805C154.088 207.121 153.678 207.619 153.338 208.299C153.01 208.967 152.752 209.828 152.564 210.883C152.389 211.938 152.301 213.197 152.301 214.662C152.301 216.268 152.418 217.686 152.652 218.916C152.887 220.146 153.203 221.178 153.602 222.01C154.012 222.83 154.492 223.451 155.043 223.873C155.605 224.295 156.215 224.506 156.871 224.506C157.48 224.506 158.025 224.348 158.506 224.031C158.986 223.703 159.391 223.199 159.719 222.52C160.059 221.828 160.316 220.955 160.492 219.9C160.668 218.834 160.756 217.557 160.756 216.068ZM163.639 215.418C163.639 216.93 163.457 218.359 163.094 219.707C162.742 221.055 162.238 222.232 161.582 223.24C160.938 224.248 160.152 225.051 159.227 225.648C158.312 226.234 157.299 226.527 156.186 226.527C155.072 226.527 154.094 226.234 153.25 225.648C152.406 225.051 151.697 224.248 151.123 223.24C150.561 222.232 150.133 221.055 149.84 219.707C149.559 218.359 149.418 216.93 149.418 215.418C149.418 213.906 149.6 212.477 149.963 211.129C150.326 209.781 150.83 208.604 151.475 207.596C152.131 206.576 152.916 205.773 153.83 205.188C154.744 204.59 155.758 204.291 156.871 204.291C157.984 204.291 158.963 204.584 159.807 205.17C160.65 205.756 161.354 206.553 161.916 207.561C162.49 208.568 162.918 209.752 163.199 211.111C163.492 212.459 163.639 213.895 163.639 215.418ZM177.666 216.068C177.666 214.463 177.537 213.051 177.279 211.832C177.033 210.613 176.699 209.6 176.277 208.791C175.855 207.971 175.369 207.355 174.818 206.945C174.268 206.523 173.693 206.312 173.096 206.312C172.498 206.312 171.959 206.477 171.479 206.805C170.998 207.121 170.588 207.619 170.248 208.299C169.92 208.967 169.662 209.828 169.475 210.883C169.299 211.938 169.211 213.197 169.211 214.662C169.211 216.268 169.328 217.686 169.562 218.916C169.797 220.146 170.113 221.178 170.512 222.01C170.922 222.83 171.402 223.451 171.953 223.873C172.516 224.295 173.125 224.506 173.781 224.506C174.391 224.506 174.936 224.348 175.416 224.031C175.896 223.703 176.301 223.199 176.629 222.52C176.969 221.828 177.227 220.955 177.402 219.9C177.578 218.834 177.666 217.557 177.666 216.068ZM180.549 215.418C180.549 216.93 180.367 218.359 180.004 219.707C179.652 221.055 179.148 222.232 178.492 223.24C177.848 224.248 177.062 225.051 176.137 225.648C175.223 226.234 174.209 226.527 173.096 226.527C171.982 226.527 171.004 226.234 170.16 225.648C169.316 225.051 168.607 224.248 168.033 223.24C167.471 222.232 167.043 221.055 166.75 219.707C166.469 218.359 166.328 216.93 166.328 215.418C166.328 213.906 166.51 212.477 166.873 211.129C167.236 209.781 167.74 208.604 168.385 207.596C169.041 206.576 169.826 205.773 170.74 205.188C171.654 204.59 172.668 204.291 173.781 204.291C174.895 204.291 175.873 204.584 176.717 205.17C177.561 205.756 178.264 206.553 178.826 207.561C179.4 208.568 179.828 209.752 180.109 211.111C180.402 212.459 180.549 213.895 180.549 215.418Z" fill="#545454"/>
<line x1="208.5" x2="208.5" y2="276" stroke="#545454"/>
<circle cx="209" cy="50" r="4" fill="#545454"/>
<circle cx="208" cy="135" r="4" fill="#545454"/>
<circle cx="208" cy="226" r="4" fill="#545454"/>
</svg>
